<?xml version="1.0" encoding="UTF-8"?>
<svg version="1.1" viewBox="0 0 500 500" xmlns="http://www.w3.org/2000/svg" xmlns:cc="http://creativecommons.org/ns#" xmlns:dc="http://purl.org/dc/elements/1.1/" xmlns:rdf="http://www.w3.org/1999/02/22-rdf-syntax-ns#">
<metadata>
<rdf:RDF>
<cc:Work rdf:about="">
<dc:format>image/svg+xml</dc:format>
<dc:type rdf:resource="http://purl.org/dc/dcmitype/StillImage"/>
<dc:title/>
</cc:Work>
</rdf:RDF>
</metadata>
<g transform="translate(0,-1298)" fill="#f70000">
<g transform="matrix(.95 0 0 .95 25.102 -57.112)" fill="#f70000">
<g transform="matrix(.25211 0 0 .25211 -21.693 1408.1)">
<path d="m560.43 1591.1 906-0.04c-10.193-7.8762-160.22-157.26-174.84-173.6l-558.38 0.4799" fill="#00adee" stroke-width="1.0131"/>
<g transform="matrix(1.0746 0 0 1.0746 -839.82 256.58)">
<g transform="matrix(.93056 0 0 .93056 805.89 -155.48)" fill="#f70000">
<path d="m995.16 771.85-995.16 1024.9 999.63-1588.3l1000.4 1598z" fill="#00adee"/>
</g>
<g transform="matrix(.9 0 0 .9 835.52 -100.84)" stroke-width=".62863">
<path d="m910.95 1241.8c-1.1702-0.8197-1.3971-1.5698-1.3971-4.6176 0-4.5098 1.823-18.256 5.0937-38.408 2.8954-17.84 5.3208-35.202 5.9387-42.512 0.54759-6.4781-0.0904-8.4194-4.1962-12.768-1.775-1.8802-3.6277-4.3769-4.1172-5.5483-0.90135-2.1572-1.2631-2.3751-10.263-6.1812-4.306-1.8211-7.5436-5.004-7.5436-7.416 0-2.8741-1.2236-4.2552-8.0713-9.1103-7.8998-5.6011-10.788-8.7458-10.788-11.747 0-2.9269-1.978-5.7364-10.22-14.516-11.974-12.755-12.179-16.208-1.095-18.4 5.9639-1.1791 18.036-3.1903 51.233-8.5352 26.36-4.244 28.45-4.6677 28.933-5.864 0.23161-0.5738 0.64652-3.8071 0.92202-7.1852 0.54048-6.627 1.0494-7.7138 4.2358-9.0458 3.1191-1.3038 3.9667-3.2178 4.8847-11.03 1.18-10.043 2.1084-11.814 6.1931-11.814 3.7096 0 4.6667-1.397 7.322-10.687 2.729-9.5477 3.4843-10.498 9.246-11.635 2.753-0.54302 4.8681-3.1487 9.5362-11.748 4.9465-9.1122 7.2972-11.821 10.259-11.821 4.0181 0 5.7293 2.7279 24.19 38.562 12.477 24.22 16.372 31.206 18.859 33.83 1.539 1.6238 1.6474 1.644 3.8602 0.7195 1.467-0.613 3.4761-0.8519 5.6486-0.6717 2.7618 0.229 3.6268 0.5993 4.7806 2.0464 1.6259 2.0389 2.3469 2.0214 13.258-0.3217 7.5243-1.6158 10.725-1.376 12.729 0.9534 0.7784 0.905 1.4154 2.315 1.4154 3.1333 0 2.1196 2.3761 2.6704 13.201 3.0599 10.02 0.3605 13.415 1.1619 15.218 3.5917 1.1386 1.535 1.1456 1.7496 0.1522 4.6756-0.9592 2.8254-0.961 3.1254-0.022 3.8117 0.5603 0.4097 2.7819 0.9361 4.9369 1.1698 8.6239 0.9351 17.099 2.3772 19.414 3.3035 2.6311 1.0528 4.935 3.4868 4.935 5.2139 0 1.9047-9.4386 12.426-32.617 36.358-13.236 13.666-23.268 24.538-24.041 26.054-1.1022 2.1604-1.2738 3.3528-1.0111 7.0246 0.2806 3.9218 0.789 5.333 4.4904 12.466 2.3248 4.48 4.3369 9.2323 4.5417 10.727 0.3183 2.3221 0.1273 2.9694-1.4183 4.8063-2.1148 2.5133-2.0734 3.4204 0.4751 10.393 2.3702 6.4851 4.9462 15.873 4.9468 18.028 6e-4 2.6636-1.5024 3.6582-5.545 3.6691-5.4193 0.015-5.4601 0.086-3.9763 6.9753 1.7279 8.0222 3.2354 19.241 3.2354 24.077 0 4.4461-0.5452 5.2622-3.8728 5.7968-3.1222 0.5016-13.412-4.0766-44.962-20.006-25.983-13.118-36.063-17.481-40.386-17.481-3.5411 0-6.2514 1.7347-11.834 7.5744-5.8369 6.1053-7.8256 7.509-10.652 7.5189-2.808 0.01-7.5455 2.5756-14.717 7.9705-6.3496 4.7768-10.596 7.1037-12.987 7.1161-0.59806 0-1.818-0.8831-2.7109-1.9693-1.584-1.927-1.6835-1.9556-4.0861-1.1744-1.3544 0.4404-6.856 2.9946-12.226 5.6759-8.6044 4.2966-15.097 6.8916-17.242 6.8916-0.37894 0-1.3177-0.4403-2.0861-0.9785zm109.19-68.567c1.7823-2.2659 2.4436-5.0681 3.4959-14.815 0.4966-4.5991 1.1734-9.2685 1.5041-10.376 2.2325-7.4798 9.481-15.654 18.976-21.399 2.9166-1.7648 7.3539-4.6517 9.8605-6.4154 3.8225-2.6895 4.5576-3.4927 4.5576-4.9798 0-3.14-3.6084-5.9683-14.029-10.996-16.842-8.1257-20.642-13.072-24.966-32.494-3.0215-13.571-4.719-16.144-9.2365-14.001-1.2802 0.6074-6.73 5.3575-12.111 10.556-5.545 5.3568-11.137 10.178-12.909 11.128-5.1649 2.7704-9.6614 3.2477-22.443 2.3822-10.873-0.7361-15.695-0.5466-17.167 0.6747-0.49997 0.415-0.5565 1.7733-0.18852 4.5301 0.39369 2.9493 1.7796 6.5401 5.5231 14.31 5.603 11.629 6.3096 13.777 6.3146 19.198 5e-3 5.125-1.3269 9.9102-5.1535 18.52-3.314 7.4558-4.9011 11.951-4.9011 13.882 0 0.61 0.73235 1.9794 1.6274 3.0432 2.1172 2.5162 3.8996 2.5139 16.207-0.02 13.047-2.6863 18.862-2.4791 25.265 0.9001 2.4415 1.2886 7.6749 5.0459 11.63 8.3496 11.544 9.644 15.495 11.391 18.144 8.0241z" fill="#e5f5fb"/>
<path d="m910.95 1241.8c-1.1791-0.8259-1.3971-1.5657-1.3971-4.7408 0-4.2698 2.0811-19.63 5.6555-41.742 1.3413-8.2979 3.0081-19.472 3.704-24.831 2.7679-21.317 2.7296-21.767-2.2881-26.906-1.9213-1.9679-3.8605-4.457-4.3094-5.5313-0.98357-2.3541-2.2831-3.218-8.368-5.5631-5.7432-2.2134-9.4811-5.3689-9.4811-8.004 0-2.9712-0.9151-4.0136-8.3582-9.521-8.4644-6.2631-10.501-8.4963-10.501-11.516 0-2.8824-2.051-5.7929-10.263-14.564-6.1435-6.5616-9.2248-11.053-9.2248-13.447 0-0.544 0.49504-1.592 1.1001-2.3288 1.382-1.6828 7.1105-2.817 44.476-8.8057 15.213-2.4382 30.771-4.999 34.575-5.6905s7.0968-1.2617 7.3192-1.2669c0.8366-0.02 1.3492-2.3958 1.7977-8.3327 0.50067-6.6274 1.0101-7.7193 4.2292-9.0649 3.1191-1.3038 3.9667-3.2178 4.8847-11.03 1.218-10.366 2.0484-11.814 6.7758-11.814 3.0822 0 4.013-1.4005 6.5025-9.7832 3.2277-10.868 3.6154-11.381 9.4828-12.538 2.7611-0.54462 4.9888-3.2822 9.7045-11.926 4.8692-8.9252 7.1761-11.643 9.8843-11.643 4.215 0 5.9664 2.7815 24.738 39.289 11.749 22.851 16.189 30.851 18.52 33.376 1.3071 1.4156 1.4755 1.4417 3.5944 0.5563 4.2316-1.768 9.0329-1.0068 10.982 1.7411 1.0416 1.4686 3.5392 1.324 12.97-0.751 7.5409-1.6592 10.97-1.3847 12.87 1.0306 0.7011 0.8912 1.2747 2.2676 1.2747 3.0585 0 2.0634 2.4563 2.6236 13.201 3.0102 10.002 0.3598 13.416 1.1624 15.205 3.575 1.1305 1.5243 1.1356 1.7323 0.1194 4.8789-0.5838 1.8077-0.9086 3.4396-0.7217 3.6265 0.3419 0.3419 2.7951 0.7444 14.943 2.452 3.6303 0.5103 7.7099 1.246 9.0656 1.6348 2.8476 0.8167 6.0215 3.7073 6.0215 5.4841 0 1.9512-10.196 13.343-32.392 36.189-11.372 11.706-21.678 22.569-22.902 24.141-2.1363 2.7441-2.225 3.0646-2.225 8.037 0 5.1561 0.019 5.2161 4.285 13.6 2.3568 4.6314 4.4389 9.5673 4.6269 10.969 0.2971 2.2154 0.083 2.8431-1.6408 4.8062l-1.9826 2.258 2.8941 8.6867c3.0252 9.0799 4.6793 15.281 4.695 17.6 0.016 2.3459-1.6316 3.3443-5.5361 3.3548-5.0882 0.014-5.5799 0.4592-4.6288 4.1934 2.7552 10.816 4.7257 29.548 3.2904 31.277-1.7189 2.0711-4.8099 1.8918-10.899-0.6321-7.188-2.9794-23.221-10.788-45.709-22.262-31.321-15.981-34.345-16.412-43.426-6.1938-5.0731 5.7081-8.3078 8.0659-11.066 8.0659-2.9584 0-7.0402 2.2196-14.822 8.0597-9.6469 7.2398-13.467 8.3994-15.824 4.8028-0.55753-0.8509-1.545-1.5471-2.1943-1.5471s-6.0348 2.4073-11.968 5.3495c-9.9655 4.9421-17.02 7.8517-19.038 7.8517-0.4526 0-1.4516-0.4403-2.22-0.9785zm109.08-68.328c1.763-1.9027 2.4935-4.9528 3.6205-15.117 1.019-9.1909 2.3264-13.601 5.4141-18.263 2.7228-4.1107 8.9312-9.5693 15.435-13.571 3.0558-1.8803 7.4655-4.8066 9.7993-6.503 3.5376-2.5715 4.2432-3.3846 4.2432-4.8898 0-3.0699-3.5271-5.7938-14.315-11.055-8.5019-4.1464-10.442-5.3762-13.842-8.7755-5.3663-5.3648-8.2029-11.506-10.712-23.192-2.1881-10.192-3.2787-13.094-5.457-14.521-2.5504-1.6711-4.6896-0.2483-15.75 10.475-14.545 14.102-16.816 14.982-35.374 13.714-11.286-0.7714-16.1-0.557-17.382 0.7742-1.6747 1.7379 8e-3 7.7222 5.2845 18.79 5.264 11.042 6.3378 14.349 6.3378 19.518 0 4.6572-1.385 9.3814-5.6628 19.316-2.0696 4.8065-3.9248 9.9869-4.1225 11.512-0.31093 2.3978-0.13756 3.0072 1.2808 4.5019 2.1548 2.2708 4.0843 2.2453 16.471-0.2185 13.26-2.6373 18.167-2.47 24.756 0.8439 2.6907 1.3533 7.754 4.9185 11.91 8.3861 11.334 9.457 15.29 11.27 18.064 8.2759z" fill="#d9f1fa"/>
<path d="m911.44 1242c-2.9391-1.4812-2.4748-7.4742 3.4434-44.451 2.6893-16.802 4.8678-32.435 5.7069-40.953 0.68197-6.9224 0.0773-8.7732-4.4931-13.754-2.2158-2.4145-4.0286-4.7693-4.0286-5.2329 0-1.4625-2.0554-2.7897-7.5537-4.8773-6.315-2.3977-10.048-5.5833-10.048-8.5743 0-2.6536-1.6469-4.4498-8.6911-9.4791-7.9497-5.6757-10.168-8.1605-10.168-11.39 0-2.9048-2.2472-6.0052-11.013-15.193-5.3574-5.6158-8.475-10.262-8.475-12.63 0-0.544 0.49504-1.592 1.1001-2.3288 1.3559-1.6511 7.7115-2.9348 39.132-7.904 30.263-4.7861 47.32-7.7902 47.98-8.4499 0.30211-0.3021 0.77032-3.3621 1.0405-6.7999 0.56772-7.2247 1.15-8.6336 4.0726-9.8547 3.249-1.3576 4.1257-3.2963 5.1133-11.307 0.48962-3.9717 1.1668-7.9487 1.5049-8.838 0.66925-1.7602 2.836-2.8515 5.6616-2.8515 2.5984 0 3.9587-2.1237 5.9191-9.2409 2.8454-10.33 4.5593-12.761 8.9957-12.761 2.5198 0 6.2463-4.4202 10.549-12.513 4.395-8.2658 7.0639-11.375 9.7641-11.375 4.075 0 6.2824 3.5402 25.282 40.547 11.929 23.235 15.354 29.406 17.763 32.006 1.4237 1.5363 1.5666 1.5621 3.7039 0.669 4.238-1.7707 9.9776-0.848 10.798 1.7358 0.3328 1.0487 0.8332 1.1772 3.6267 0.931 1.7823-0.1571 6.0694-0.9099 9.5269-1.6728 9.4653-2.0885 13.07-1.1048 14.082 3.8429 0.5206 2.5454 1.5808 2.8805 9.4915 3 15.868 0.2399 21.093 2.3464 19.363 7.8063-1.3444 4.2429-1.3269 4.6164 0.2349 5.0084 0.8154 0.2046 5.1553 0.8136 9.6441 1.3532 10.278 1.2355 16.12 2.9132 17.864 5.1308 0.7142 0.9079 1.2985 2.0764 1.2985 2.5966 0 2.1668-9.2096 12.363-36.09 39.956-9.712 9.9698-18.608 19.488-19.77 21.151-1.8524 2.6534-2.105 3.4885-2.0583 6.8064 0.062 4.3771 1.9764 9.9218 5.3337 15.445 2.8649 4.7132 4.4264 9.3718 3.8809 11.579-0.2308 0.9341-1.1248 2.4401-1.9866 3.3464l-1.567 1.648 3.1647 9.6674c3.7486 11.451 4.6439 15.254 4.1356 17.568-0.4347 1.9794-1.6701 2.451-6.4538 2.4633-4.1104 0.011-4.3668 0.5278-3.0441 6.1385 1.6588 7.0361 2.896 15.199 3.3143 21.869 0.4328 6.8991 0.015 8.016-3.3065 8.8498-3.0355 0.7618-15.308-4.7621-50.342-22.66-35.151-17.958-37.298-18.275-47.532-7.0338-4.8386 5.3153-7.7701 7.3037-10.768 7.3037-2.4583 0-6.929 2.488-14.216 7.9113-9.9898 7.4347-13.592 8.5611-15.937 4.9831-0.56901-0.8685-1.5658-1.579-2.2152-1.579s-6.0348 2.4073-11.968 5.3495c-9.3631 4.6434-17.067 7.8734-18.706 7.8425-0.27021-0.01-1.1985-0.3657-2.0629-0.8014zm108.57-68.496c1.9084-2.0935 2.5873-4.8519 3.6272-14.738 0.5354-5.0893 1.4607-10.297 2.1538-12.121 2.9004-7.6334 8.6935-13.844 18.608-19.951 8.0164-4.9372 13.392-8.8331 14.155-10.259 0.8793-1.643-0.5016-4.275-3.4046-6.4893-1.2159-0.9274-6.3358-3.6746-11.378-6.1048-7.7076-3.7153-9.7972-5.0394-13.126-8.3177-4.5705-4.5007-7.9852-10.82-9.5805-17.729-4.0171-17.398-4.559-18.937-7.269-20.646-1.9186-1.2102-5.1147 1.0634-15.279 10.869-11.688 11.276-14.619 13.124-21.828 13.768-2.5205 0.2251-8.4017 0.1807-13.069-0.099-10.787-0.6457-16.695-0.3667-17.851 0.8427-1.7842 1.8666-0.21179 7.6831 4.9226 18.21 8.6795 17.795 8.6861 22.186 0.062 41.441-1.6141 3.6037-3.0867 7.8469-3.2725 9.4294-0.29075 2.4764-0.1138 3.1183 1.2697 4.6061 2.1232 2.2833 4.5033 2.2606 16.44-0.1572 18.389-3.7244 22.039-2.7504 37.693 10.058 7.9134 6.4749 11.668 8.8009 14.207 8.8009 0.8959 0 2.2091-0.6365 2.9183-1.4144z" fill="#c7ebf9"/>
<path d="m911.44 1242c-2.9752-1.4994-2.5435-6.8 3.7994-46.651 4.0776-25.618 5.9408-41.313 5.3624-45.169-0.38141-2.5434-1.0842-3.7038-4.4927-7.418-2.2223-2.4216-4.0405-4.7611-4.0405-5.1989 0-1.4148-2.1078-2.7627-7.5537-4.8304-6.315-2.3977-10.048-5.5833-10.048-8.5743 0-2.6012-1.8368-4.6871-7.7776-8.8324-2.8101-1.9608-6.453-4.8998-8.0953-6.531-2.5442-2.527-2.986-3.3283-2.986-5.4159 0-3.0775-1.5779-5.3064-10.261-14.495-6.0975-6.452-9.2263-11.002-9.2263-13.418 0-0.544 0.49504-1.5969 1.1001-2.3397 1.3276-1.6299 9.3953-3.2281 42.904-8.4992 27.81-4.3746 43.528-7.1635 44.208-7.844 0.28787-0.2879 0.77171-3.3822 1.0752-6.8763 0.63929-7.3599 1.1375-8.5664 4.0376-9.7781 3.2539-1.3596 4.1617-3.346 5.1237-11.211 0.47564-3.8888 1.194-7.8723 1.5965-8.8522 0.78994-1.9235 2.7038-2.9331 5.5597-2.9331 2.5922 0 3.9424-2.1016 5.9332-9.2343 2.9409-10.537 4.5762-12.768 9.3603-12.768 2.1018 0 6.1751-4.9989 10.142-12.447 5.9706-11.21 9.304-13.608 13.502-9.7126 2.3552 2.1855 7.9627 12.298 22.025 39.721 13.552 26.427 16.503 31.536 18.7 32.38 0.4879 0.1873 1.7038-0.082 2.702-0.598 0.9982-0.5162 3.1236-0.9385 4.7233-0.9385 2.4233 0 3.2382 0.3298 4.886 1.9775 2.3282 2.3282 3.3979 2.3907 10.678 0.6235 2.8403-0.6895 6.4865-1.4443 8.1029-1.6773 5.1683-0.7451 9.3195 1.5728 9.3195 5.2037 0 2.0774 1.5329 2.4381 12.258 2.8842 14.074 0.5855 17.089 1.7578 16.428 6.3882-0.1973 1.3839-0.535 3.2569-0.7504 4.1623-0.4766 2.0036-0.485 2.0009 10.724 3.3822 10.412 1.2831 16.149 2.9264 17.875 5.1201 0.7142 0.9079 1.2985 2.0785 1.2985 2.6014 0 2.1162-9.3944 12.505-34.297 37.926-10.392 10.609-20.001 20.894-21.353 22.856-2.1215 3.0804-2.4506 4.018-2.4095 6.8644 0.064 4.4092 1.6414 9.0239 5.2887 15.47 4.7544 8.4025 5.2932 12.25 2.104 15.023-1.7895 1.5559-1.7612 1.774 1.4377 11.065 2.8712 8.3395 4.7222 16.25 4.2461 18.147-0.4464 1.7784-1.8152 2.2628-6.4279 2.2747-2.2737 0.01-3.4274 0.2885-3.6608 0.8966-0.1874 0.4884 0.2282 3.5294 0.9235 6.7578 2.554 11.858 3.9301 25.535 2.7474 27.306-0.8991 1.3465-3.4657 2.2593-5.3137 1.8897-3.5934-0.7187-15.478-6.2795-43.238-20.231-15.386-7.7323-30.146-14.774-32.8-15.649-9.071-2.9898-12.204-1.9719-19.809 6.4352-4.6143 5.1012-7.5502 7.0614-10.576 7.0614-2.372 0-7.7388 3.0085-14.766 8.2774-9.4171 7.0609-13.026 8.1471-15.339 4.617-0.56901-0.8685-1.5658-1.579-2.2152-1.579s-6.0348 2.4073-11.968 5.3495c-9.3631 4.6434-17.067 7.8734-18.706 7.8425-0.27021-0.01-1.1985-0.3657-2.0629-0.8014zm109.6-69.84c1.4212-3.0773 1.596-3.9515 2.5963-12.989 1.9048-17.209 5.6117-22.724 22.434-33.372 9.2834-5.8765 13.102-8.9741 13.102-10.628 0-2.6405-3.8261-5.6093-13.348-10.357-11.263-5.6161-14.874-8.1568-18.4-12.946-3.5805-4.8638-5.4793-9.8794-7.7412-20.447-2.8673-13.396-4.8186-16.185-9.5956-13.715-1.1404 0.5898-6.4066 5.2639-11.703 10.387-7.597 7.3487-10.524 9.7535-13.867 11.394l-4.2379 2.0797-16.03-0.163c-15.026-0.1528-19.5 0.227-19.483 1.6537 0.0473 3.9341 1.8684 9.3578 6.0121 17.905 6.1773 12.742 7.316 17.603 5.8193 24.842-0.57023 2.7577-2.766 8.9492-4.9603 13.987-4.678 10.74-5.2319 13.896-2.8831 16.426 2.1093 2.272 4.2759 2.2517 16.752-0.1572 5.3591-1.0347 11.345-1.8823 13.302-1.8835 7.053 0 13.322 2.9496 22.215 10.469 13.303 11.247 17.555 12.844 20.016 7.5151z" fill="#b7e6f8"/>
<path d="m911.61 1242.1c-3.3368-1.3427-3.0618-4.3741 5.1201-56.435 2.9967-19.068 4.3938-32.034 3.8455-35.69-0.36827-2.4558-1.0474-3.6226-3.7857-6.504-1.8353-1.9313-3.8809-4.5014-4.5459-5.7116-1.2934-2.3538-3.3697-3.6497-9.174-5.7259-4.929-1.763-8.609-5.2672-8.609-8.1976 0-2.6087-1.3545-4-10.231-10.508-6.5099-4.7733-8.6221-7.3493-8.6259-10.52-3e-3 -2.5178-2.2721-5.6151-10.4-14.196-6.022-6.3578-9.0898-10.818-9.0898-13.215 0-0.544 0.49504-1.5926 1.1001-2.3302 1.3587-1.6564 7.4789-2.8768 41.157-8.2077 30.241-4.7868 45.272-7.4617 45.996-8.1855 0.31012-0.3101 0.80592-3.4268 1.1018-6.9259 0.29588-3.4992 0.83538-6.9178 1.1989-7.5971 0.36351-0.6792 1.7645-1.6765 3.1132-2.2162 3.0541-1.222 4.015-3.5987 5.0535-12.499 1.0333-8.8552 2.0275-10.338 6.9492-10.364 2.5591-0.013 3.6802-1.884 6.2318-10.398 2.6709-8.9124 3.9543-10.798 7.7649-11.407 3.7628-0.60171 6.5317-3.5666 10.73-11.489 6.0396-11.398 9.4909-14.378 13.447-11.607 2.4861 1.7413 7.0992 10.001 23.735 42.496 10.634 20.772 15.8 29.785 17.43 30.411 0.4504 0.1728 1.8557-0.1189 3.1229-0.6484 1.2672-0.5294 3.4586-0.9626 4.8698-0.9626 2.0818 0 2.9933 0.415 4.8314 2.2002 1.246 1.2101 2.4342 2.1998 2.6405 2.1994 0.2063-5e-4 3.2039-0.6787 6.6613-1.5071 9.3348-2.2367 12.314-2.52 14.946-1.4206 2.3721 0.9911 3.5991 2.6236 3.5991 4.7886 0 1.9195 1.7108 2.3091 12.156 2.7683 14.354 0.6311 17.313 1.7965 16.544 6.5157-0.2126 1.3043-0.5595 3.1122-0.7708 4.0176-0.4647 1.9904-0.4879 1.9829 10.417 3.3714 13.535 1.7233 17.865 3.2619 19.124 6.7945 0.4965 1.3937 0.2282 2.0572-1.8806 4.6506-5.2526 6.4595-14.389 16.246-29.822 31.942-20.672 21.026-23.788 24.46-25.306 27.89-1.1354 2.5666-1.1811 3.2199-0.4945 7.0622 0.4579 2.562 1.7295 6.0542 3.2201 8.8433 4.7661 8.918 5.8123 11.44 5.8699 14.15 0.046 2.1857-0.2746 3.0136-1.6712 4.3088-0.9508 0.8818-1.7288 1.865-1.7288 2.1849s1.1468 3.9152 2.5485 7.9896c2.3701 6.8897 4.9805 16.436 4.9907 18.252 0 0.4322-0.5613 1.3516-1.2528 2.043-0.9794 0.9794-2.0955 1.2573-5.0488 1.2573-2.686 0-3.8909 0.2589-4.1323 0.888-0.1874 0.4884 0.2282 3.5294 0.9235 6.7578 2.9672 13.776 3.9829 26.085 2.292 27.776-3.2547 3.2547-6.3275 2.0656-45.582-17.639-16.769-8.4174-32.696-16.003-35.393-16.858-9.0379-2.8625-12.212-1.9133-19.013 5.6856-4.5845 5.1224-8.4752 7.8482-11.202 7.8482-2.531 0-8.1643 3.1173-14.857 8.2213-9.3043 7.0958-13.011 8.2252-15.339 4.6731-0.56901-0.8685-1.5658-1.579-2.2152-1.579s-6.0348 2.4073-11.968 5.3495c-9.5061 4.7143-17.213 7.933-18.706 7.8119-0.27021-0.022-1.1193-0.2926-1.8869-0.6014zm107.76-67.566c1.9446-1.362 3.2515-5.9475 4.2416-14.882 1.0515-9.4889 1.7549-12.276 4.3357-17.178 2.9073-5.5231 8.3694-10.604 17.701-16.468 9.6775-6.0804 13.516-9.2139 13.516-11.035 0-2.5491-5.0142-6.288-15.103-11.262-16.428-8.0989-19.738-12.483-24.207-32.066-4.3266-18.958-5.7223-19.15-22.212-3.0548-7.0497 6.8807-9.9454 9.2639-13.197 10.861l-4.1659 2.0463h-17.099c-11.539 0-17.324 0.2237-17.791 0.6878-1.4847 1.4766 0.4497 8.523 4.92 17.922 8.7404 18.378 8.869 21.652 1.528 38.91-4.9359 11.603-5.4568 14.582-3.0108 17.217 1.633 1.7592 1.8257 1.8044 6.1925 1.4539 2.4789-0.1989 7.4773-0.9966 11.108-1.7726 4.051-0.8659 8.92-1.4275 12.605-1.4539 5.7002-0.041 6.242 0.075 10.687 2.28 2.5752 1.2777 6.9452 4.188 9.7112 6.4674 8.1763 6.7379 12.416 9.8526 15.087 11.083 3.0715 1.4148 3.4538 1.4328 5.1531 0.2426z" fill="#a9e1f7"/>
<path d="m911.61 1242.1c-0.76759-0.3089-1.5947-1.3518-1.8381-2.3175-0.60411-2.3972 0.58192-13.448 3.2582-30.359 6.7373-42.571 8.3864-55.632 7.5718-59.974-0.30908-1.6475-1.5426-3.5773-4.0211-6.2909-1.9664-2.1529-4.0649-4.8277-4.6633-5.9438-1.0824-2.0187-2.631-2.9005-9.4886-5.403-1.6682-0.6087-4.1434-2.163-5.5005-3.454-1.9724-1.8763-2.4674-2.7978-2.4674-4.5932 0-2.5498-1.8427-4.3909-11.172-11.163-5.6245-4.0826-7.6808-6.7156-7.6844-9.8401-3e-3 -2.4584-2.5782-5.9783-10.077-13.773-8.4157-8.7481-10.677-13.036-8.3646-15.86 1.4334-1.7502 6.869-2.8231 45.156-8.9135 38.837-6.1778 41.778-6.7614 42.386-8.4113 0.27112-0.7358 0.67893-3.8383 0.90626-6.8946 0.22733-3.0562 0.70684-6.1052 1.0656-6.7755 0.35873-0.6703 1.7478-1.6571 3.0867-2.1928 3.2194-1.2882 4.0858-3.3343 5.0088-11.829 1.0293-9.4738 2.0078-11.014 7.0118-11.041 2.5591-0.013 3.6802-1.884 6.2318-10.398 2.6709-8.9124 3.9543-10.798 7.7649-11.407 3.7628-0.60171 6.5317-3.5666 10.73-11.489 6.5813-12.421 10.178-15.042 14.429-10.518 2.4221 2.578 9.0286 14.607 22.926 41.742 10.508 20.517 15.635 29.453 17.257 30.075 0.4504 0.1728 1.8557-0.1189 3.1229-0.6484 1.2672-0.5294 3.4586-0.9626 4.8698-0.9626 2.0818 0 2.9933 0.415 4.8314 2.2002 1.246 1.2101 2.4342 2.1998 2.6405 2.1994 0.2063-5e-4 3.2039-0.673 6.6613-1.4945 8.8653-2.1065 11.364-2.3965 14.16-1.6435 2.6828 0.7224 4.3843 2.6107 4.3843 4.8658 0 2.0705 1.5224 2.4339 12.156 2.9014 10.279 0.4519 14.26 1.1933 15.852 2.952 1.0458 1.1556 1.0393 1.911-0.063 7.2666-0.4845 2.3546-0.7248 2.2694 10.402 3.6861 13.091 1.6668 17.537 3.1461 18.981 6.3155 0.5824 1.2784 0.4388 1.9037-0.8946 3.8957-2.6722 3.992-13.766 15.938-32.62 35.125-19.209 19.549-22.654 23.453-23.825 27.002-1.0802 3.2728 0.217 9.2688 3.2205 14.886 4.7399 8.865 5.7909 11.4 5.8484 14.107 0.046 2.1857-0.2746 3.0136-1.6712 4.3088-0.9508 0.8818-1.7288 1.8993-1.7288 2.2612 0 0.3618 1.1469 3.9571 2.5487 7.9896 2.3594 6.7876 4.9802 16.332 4.9905 18.176 0 0.4322-0.5613 1.3516-1.2528 2.043-0.9794 0.9794-2.0955 1.2573-5.0488 1.2573-2.686 0-3.8909 0.2589-4.1323 0.888-0.1874 0.4884 0.2282 3.5294 0.9235 6.7578 2.9672 13.776 3.9829 26.085 2.292 27.776-3.2311 3.2311-7.0829 1.7354-46.141-17.918-16.628-8.3669-31.988-15.684-34.764-16.561-9.2068-2.9084-12.078-2.0757-18.902 5.4819-4.8187 5.3366-8.6402 8.034-11.382 8.034-2.531 0-8.1643 3.1173-14.857 8.2213-9.3043 7.0958-13.011 8.2252-15.339 4.6731-0.56901-0.8685-1.5658-1.579-2.2152-1.579s-6.0348 2.4073-11.968 5.3495c-9.5061 4.7143-17.213 7.933-18.706 7.8119-0.27021-0.022-1.1193-0.2926-1.8869-0.6014zm107.75-67.558c1.9603-1.373 3.2457-5.8605 4.3198-15.081 0.5244-4.5022 1.2527-9.3173 1.6184-10.7 1.1387-4.3062 4.4333-9.7551 8.139-13.461 3.5986-3.5985 5.7624-5.1788 15.984-11.674 6.6321-4.2139 9.7437-7.0013 9.7437-8.7285 0-2.4687-5.1173-6.2641-15.103-11.201-8.0267-3.9687-10.369-5.4507-13.389-8.4731-5.1609-5.1642-8.1199-11.441-10.472-22.213-2.1598-9.8928-2.8941-12.237-4.5991-14.683-1.0799-1.5493-1.5495-1.7479-3.4164-1.445-2.6241 0.4259-5.0916 2.4073-16.049 12.888-10.502 10.045-13.088 11.477-21.397 11.852-3.1808 0.1433-9.4607 0.032-13.955-0.2464-8.7568-0.5432-14.339-0.2492-15.399 0.8111-0.4437 0.4437-0.46871 1.99-0.0769 4.7566 0.42774 3.0204 1.7462 6.5107 5.01 13.262 5.4883 11.354 6.6443 15.096 6.5516 21.21-0.0802 5.2935-1.2472 9.0771-6.398 20.745-3.7238 8.4351-4.0794 11.443-1.6614 14.052 2.0436 2.205 4.1694 2.1701 17.631-0.2893 13.141-2.4009 16.76-2.2524 23.26 0.9545 2.4202 1.194 7.0878 4.3851 10.372 7.0912 9.3237 7.6816 10.996 8.9112 13.923 10.24 3.3098 1.5019 3.6638 1.5239 5.3631 0.3336z" fill="#a3def7"/>
<path d="m912.07 1242.3c-3.685-1.2178-3.4558-5.1199 2.5025-42.6 5.3037-33.362 6.822-46.045 6.0223-50.308-0.29227-1.5579-1.584-3.5612-4.0066-6.2136-1.9664-2.1529-4.0649-4.8277-4.6633-5.9438-1.0824-2.0187-2.631-2.9005-9.4886-5.403-1.6682-0.6087-4.1434-2.163-5.5005-3.454-1.9724-1.8763-2.4674-2.7978-2.4674-4.5932 0-2.5498-1.8427-4.3909-11.172-11.163-5.6245-4.0826-7.6808-6.7156-7.6844-9.8401-3e-3 -2.4395-2.6007-6.0237-9.7171-13.407-8.6155-8.9381-11.024-13.418-8.7246-16.226 1.4334-1.7502 6.869-2.8231 45.156-8.9135 38.832-6.177 41.778-6.7614 42.389-8.4113 0.27276-0.7358 0.69616-3.8674 0.94087-6.9593 0.24472-3.0918 0.69147-6.082 0.99278-6.645 0.3013-0.563 1.6815-1.5349 3.0671-2.1597 3.307-1.4912 4.1438-3.4625 5.0636-11.928 1.0293-9.4738 2.0078-11.014 7.0118-11.041 2.5591-0.013 3.6802-1.884 6.2318-10.398 2.6709-8.9124 3.9543-10.798 7.7649-11.407 3.7628-0.60171 6.5317-3.5666 10.73-11.489 6.5799-12.418 10.176-15.04 14.429-10.522 2.3785 2.5266 9.4762 15.468 23.191 42.284 10.13 19.806 15.37 28.915 16.992 29.538 0.4504 0.1728 1.8557-0.1189 3.1229-0.6484 1.2672-0.5294 3.4586-0.9626 4.8698-0.9626 2.0818 0 2.9933 0.415 4.8314 2.2002 1.246 1.2101 2.5244 2.2002 2.8409 2.2002 0.3163 0 3.3141-0.6767 6.6613-1.5037 8.4346-2.084 11.123-2.3989 13.96-1.6351 2.6828 0.7224 4.3842 2.6107 4.3842 4.8658 0 2.0705 1.5225 2.4339 12.156 2.9014 10.279 0.4519 14.26 1.1933 15.852 2.952 1.0458 1.1556 1.0391 1.911-0.063 7.2666-0.4845 2.3546-0.7248 2.2694 10.402 3.6861 13.091 1.6668 17.537 3.1461 18.981 6.3155 0.5824 1.2784 0.4388 1.9037-0.8946 3.8957-2.6918 4.0213-13.832 16.014-32.566 35.058-19.104 19.421-22.7 23.497-23.879 27.069-1.0802 3.2728 0.2172 9.2688 3.2205 14.886 4.7399 8.865 5.7909 11.4 5.8484 14.107 0.046 2.1857-0.2746 3.0136-1.6712 4.3088-0.9508 0.8818-1.7288 1.8993-1.7288 2.2612 0 0.3618 1.1469 3.9571 2.5487 7.9896 2.3594 6.7876 4.9802 16.332 4.9906 18.176 0 0.4322-0.5614 1.3516-1.2527 2.043-0.9794 0.9794-2.0955 1.2573-5.0489 1.2573-2.6859 0-3.891 0.2589-4.1322 0.888-0.1875 0.4884 0.2338 3.5405 0.9364 6.7826 1.5254 7.0404 3.2156 19.496 3.2156 23.696 0 3.2881-0.9962 4.696-3.8216 5.4009-2.6487 0.6607-11.231-3.1616-43.286-19.279-16.486-8.2889-32.031-15.692-34.764-16.555-9.1746-2.8983-12.054-2.0605-18.873 5.4912-4.8966 5.4229-8.6428 8.034-11.527 8.034-2.5683 0-7.0671 2.5109-14.398 8.0359-9.692 7.3042-13.314 8.4284-15.653 4.8585-0.56901-0.8685-1.5624-1.579-2.2074-1.579s-5.4852 2.1339-10.756 4.742c-14.325 7.0886-18.913 8.8062-21.36 7.9976zm107.8-68.301c1.944-1.944 2.552-4.3476 4.0474-15.999 0.9942-7.7462 1.6088-10.422 3.1504-13.717 2.5789-5.5108 8.7425-11.791 16.342-16.651 13.688-8.7531 15.764-10.407 15.764-12.561 0-2.6219-4.9641-6.3943-14.657-11.139-15.869-7.767-20.592-13.778-24.281-30.902-2.8648-13.298-4.278-16.344-7.5836-16.344-2.3486 0-5.2277 2.2504-15.408 12.044-4.8458 4.6615-10.079 9.2127-11.63 10.114-4.8498 2.8183-9.1273 3.3122-22.116 2.5538-11.212-0.6547-16.909-0.3861-18.151 0.8555-0.39248 0.3925-0.39951 2.1066-0.0196 4.7888 0.43539 3.0744 1.6882 6.4419 4.7442 12.753 9.0471 18.682 9.0884 22.838 0.422 42.386-3.5781 8.0706-3.981 10.991-1.9165 13.89 1.1244 1.579 1.7059 1.8257 4.3034 1.8257 1.6518 0 6.7872-0.7002 11.412-1.5561 11.944-2.2105 14.926-2.458 19.174-1.5917 5.313 1.0836 9.8348 3.6903 17.564 10.125 7.8508 6.5357 9.6368 7.8529 12.776 9.4222 3.0864 1.5427 4.2806 1.4842 6.0618-0.297z" fill="#9ce1f7"/>
<path d="m912.07 1242.3c-3.685-1.2178-3.4558-5.1199 2.5025-42.6 5.3037-33.362 6.822-46.045 6.0223-50.308-0.2903-1.5474-1.6004-3.5931-4.0066-6.2562-1.9664-2.1763-4.1464-4.9082-4.8446-6.0709-1.0343-1.7225-2.3148-2.5274-6.9149-4.3461-7.0182-2.7747-10.36-5.6466-10.36-8.9028 0-2.5724-1.8651-4.4602-10.966-11.099-5.9156-4.3156-7.8872-6.7979-7.8909-9.9351-3e-3 -2.4395-2.6007-6.0237-9.7171-13.407-8.6155-8.9381-11.024-13.418-8.7246-16.226 1.4334-1.7502 6.869-2.8231 45.156-8.9135 38.822-6.1754 41.776-6.7614 42.396-8.4113 0.2762-0.7358 0.71021-3.8837 0.96447-6.9955 0.25427-3.1117 0.6982-6.102 0.98652-6.6451 0.28832-0.543 1.6579-1.4986 3.0435-2.1234 3.2741-1.4764 4.1397-3.4629 5.0216-11.524 0.38887-3.5546 1.1119-7.4319 1.6068-8.6163 0.81057-1.94 1.213-2.195 4.059-2.5726 1.8242-0.2419 3.5994-0.9054 4.2007-1.5699 0.5728-0.6329 2.1114-4.7208 3.419-9.0843 2.6709-8.9124 3.9543-10.798 7.7649-11.407 3.7628-0.60171 6.5317-3.5666 10.73-11.489 6.5799-12.418 10.176-15.04 14.429-10.522 2.3785 2.5266 9.4762 15.468 23.191 42.284 9.6448 18.858 15.094 28.443 16.755 29.47 0.3876 0.2395 1.9686-0.047 3.5135-0.6372 3.9373-1.5037 7.5463-0.9323 9.8794 1.5641 0.9923 1.0618 2.0963 1.9305 2.4534 1.9305s2.818-0.547 5.4687-1.2156c8.6765-2.1884 12.439-2.6688 15.161-1.9358 2.7254 0.7338 4.4311 2.6117 4.4311 4.8784 0 2.0726 1.5194 2.4368 12.258 2.9382 10.451 0.488 14.177 1.1776 15.749 2.9152 1.0458 1.1556 1.0393 1.911-0.063 7.2666-0.4845 2.3546-0.7248 2.2694 10.402 3.6861 13.091 1.6668 17.537 3.1461 18.981 6.3155 0.5821 1.2776 0.439 1.9048-0.8887 3.8957-2.5746 3.8606-14.684 16.861-34.125 36.633-18.402 18.717-21.959 22.925-22.696 26.854-0.6316 3.3667 1.3357 9.9749 4.7313 15.893 5.3424 9.3107 6.0685 13.454 2.8486 16.254-0.8474 0.7367-1.5407 1.644-1.5407 2.0162s1.2652 4.3534 2.8115 8.847c4.6902 13.63 5.381 19.164 2.5287 20.259-0.5734 0.22-2.5842 0.4-4.4683 0.4-2.371 0-3.5308 0.2734-3.7666 0.888-0.1874 0.4884 0.234 3.5405 0.9364 6.7826 1.5254 7.0404 3.2156 19.496 3.2156 23.696 0 3.2881-0.9962 4.696-3.8216 5.4009-2.6534 0.6619-11.241-3.1658-43.64-19.452-30.17-15.166-36.63-17.944-41.727-17.944-4.0629 0-6.5679 1.5289-11.556 7.0531-4.9269 5.4565-8.6437 8.034-11.585 8.034-2.6119 0-6.937 2.4176-14.34 8.0155-6.2391 4.718-10.307 7.0314-12.411 7.0579-0.60239 0.01-1.8514-0.8349-2.7756-1.8721-0.92419-1.0373-2.1679-1.8859-2.7638-1.8859s-5.3958 2.1339-10.666 4.742c-14.325 7.0886-18.913 8.8062-21.36 7.9976zm107.79-68.293c1.9746-1.9745 2.7093-4.7509 3.8476-14.539 1.0468-9.001 2.1005-13.023 4.5291-17.287 2.4662-4.3304 8.5052-10.254 14.184-13.912 11.592-7.4682 13.404-8.6987 15.04-10.215 0.9416-0.8727 1.712-2.2145 1.712-2.9817 0-2.6219-4.9641-6.3943-14.657-11.139-15.968-7.8153-20.608-13.767-24.328-31.205-2.2319-10.464-2.8043-12.31-4.4721-14.431-1.6822-2.1386-4.112-2.081-7.2107 0.1707-1.3484 0.9799-6.6012 5.7526-11.673 10.606-13.264 12.693-15.239 13.415-33.682 12.313-11.006-0.6577-16.564-0.3736-17.85 0.9126-0.45741 0.4574-0.45571 1.9527 6e-3 4.9158 0.48451 3.1122 1.927 6.8952 5.3585 14.053 5.3815 11.226 6.2018 13.833 6.1788 19.641-0.0209 5.2803-1.1909 9.2966-5.6188 19.288-4.1577 9.3814-4.7653 12.899-2.7234 15.767 1.227 1.7233 1.7209 1.9319 4.573 1.9319 1.7586 0 7.0434-0.7501 11.744-1.6669 5.0204-0.9792 10.751-1.6745 13.89-1.6852 8.631-0.03 11.663 1.5634 27.312 14.349 5.1279 4.1897 9.2291 6.6037 11.22 6.6046 0.6208 3e-4 1.7998-0.6706 2.62-1.4908z" fill="#96daf6"/>
<path d="m912.07 1242.3c-1.7061-0.5638-2.5145-2.2494-2.5145-5.243 0-3.8644 1.9811-18.597 5.0234-37.357 4.8719-30.042 6.7973-46.143 6.0159-50.308-0.2903-1.5474-1.6004-3.5931-4.0066-6.2562-1.9664-2.1763-4.1464-4.9082-4.8446-6.0709-1.0343-1.7225-2.3148-2.5274-6.9149-4.3461-7.0182-2.7747-10.36-5.6466-10.36-8.9028 0-2.589-1.9531-4.5699-10.941-11.096-5.9077-4.2898-7.9122-6.7947-7.916-9.892-3e-3 -2.502-2.3368-5.7072-10.097-13.866-7.0731-7.4372-10.032-12.457-8.8603-15.029 0.3898-0.8555 1.3487-1.7939 2.1309-2.0853 1.8908-0.7044 22.819-4.3249 49.512-8.5652 11.928-1.8949 24.89-4.0471 28.805-4.7826 8.2419-1.5489 7.8976-1.1728 8.5666-9.3565 0.59158-7.2371 0.64469-7.3548 4.1107-9.1111 3.5774-1.8128 4.0122-2.8205 5.0194-11.634 0.98191-8.5917 1.5051-9.8882 4.3037-10.666 1.273-0.3536 2.7657-0.6444 3.3171-0.6463 1.8982-0.01 3.2318-2.4804 5.6032-10.393 2.6709-8.9124 3.9543-10.798 7.7649-11.407 3.7628-0.60171 6.5317-3.5666 10.73-11.489 6.5791-12.417 10.174-15.039 14.429-10.524 2.3416 2.4846 9.0859 14.801 23.541 42.99 9.7595 19.032 14.732 27.731 16.463 28.801 0.3556 0.2197 1.9105-0.083 3.4554-0.6731 3.9408-1.505 7.5012-0.9372 9.7821 1.5601 0.9718 1.064 2.0893 1.9345 2.4834 1.9345s2.8853-0.5509 5.536-1.2243c7.9096-2.0092 12.674-2.5969 15.306-1.8881 2.5723 0.6927 4.286 2.6065 4.286 4.7867 0 0.7671 0.3442 1.6074 0.7649 1.8674 0.4206 0.26 5.8965 0.7928 12.168 1.1841 9.4007 0.5864 11.778 0.9313 13.536 1.9635 1.8931 1.1115 2.1208 1.5301 2.0261 3.7249-0.059 1.36-0.2992 3.3662-0.5344 4.4581-0.4271 1.9827-0.423 1.9863 2.9356 2.6113 1.8497 0.3442 6.8199 1.0792 11.045 1.6332 8.998 1.18 13.064 2.5327 14.861 4.9441 1.2628 1.6943 1.2682 1.8037 0.1872 3.811-1.7073 3.1701-14.508 16.996-35.368 38.201-22.152 22.518-22.964 23.662-21.77 30.634 0.4087 2.3859 1.6855 6.0081 3.0182 8.5621 5.7494 11.019 6.1398 11.955 6.1398 14.73 0 2.2651-0.3135 3.0362-1.6763 4.1229-0.922 0.7351-1.6764 1.6994-1.6764 2.1427 0 0.4434 1.2652 4.4828 2.8115 8.9764 4.6902 13.63 5.381 19.164 2.5287 20.259-0.5734 0.22-2.5842 0.4-4.4683 0.4-2.371 0-3.5308 0.2734-3.7666 0.888-0.1874 0.4884 0.234 3.5405 0.9364 6.7826 1.5254 7.0404 3.2156 19.496 3.2156 23.696 0 3.2881-0.9962 4.696-3.8216 5.4009-2.6432 0.6594-11.179-3.1462-43.64-19.457-30.808-15.48-36.506-17.939-41.565-17.939-4.254 0-6.6502 1.4612-11.926 7.2725-4.7822 5.2675-8.5882 7.8146-11.677 7.8146-2.3054 0-6.913 2.6055-13.677 7.7341-6.2038 4.7037-10.788 7.3531-12.722 7.3531-0.63023 0-1.9217-0.8708-2.8699-1.935-2.2658-2.543-3.242-2.3241-13.989 3.1365-12.901 6.5549-18.305 8.5767-20.757 7.7663zm107.8-68.301c1.922-1.922 2.7016-4.909 4.1164-15.771 0.6317-4.8498 1.602-10.079 2.1563-11.62 2.5681-7.1399 8.8655-13.755 19.14-20.105 10.332-6.3857 13.892-9.2135 13.892-11.036 0-3.0872-3.8168-6.1513-13.992-11.232-17.589-8.7835-20.911-13.361-25.929-35.728-1.8618-8.299-3.5027-11.397-6.2018-11.71-2.5416-0.2943-5.0927 1.6192-15.769 11.828-13.821 13.216-15.642 13.872-35.144 12.662-11.066-0.6864-15.411-0.4139-16.884 1.059-1.446 1.446 0.65008 8.9755 5.0893 18.282 5.2775 11.064 6.3624 14.581 6.3624 20.628 0 5.2134-1.0669 8.8955-5.3182 18.355-1.5186 3.3788-3.2317 7.7622-3.8069 9.741l-1.0459 3.5978 1.637 2.4737c1.5646 2.3643 1.7849 2.4736 4.9832 2.4736 1.8404 0 7.2819-0.7538 12.092-1.6751 10.752-2.0594 17.471-2.1715 22.089-0.3685 3.7821 1.4765 8.7932 4.9702 16.832 11.735 5.6563 4.76 10.849 7.9106 13.039 7.9106 0.6393 0 1.8371-0.6747 2.6617-1.4993z" fill="#8bd6f5"/>
<path d="m912.07 1242.3c-1.7086-0.5647-2.5145-2.2509-2.5145-5.2615 0-3.7604 2.3514-20.891 5.6299-41.017 3.0064-18.455 5.6855-38.774 5.6855-43.121 0-4.2994-0.81907-6.0608-4.7201-10.151-1.8633-1.9535-3.5772-4.3065-3.8087-5.2289-0.45986-1.8323-2.364-2.9753-9.0048-5.4054-5.3332-1.9516-8.8688-5.2614-8.8688-8.3023 0-2.5781-2.0491-4.6697-10.612-10.832-5.8622-4.2186-7.7899-6.5272-8.0335-9.6211-0.24309-3.0867-2.0887-5.7078-9.7322-13.822-8.0167-8.51-10.759-13.159-9.2976-15.76 0.49495-0.8808 1.7486-1.8319 2.7858-2.1136 3.3038-0.8971 21.937-4.1176 44.947-7.7683 28.679-4.5502 39.057-6.4127 39.784-7.1398 0.32161-0.3216 0.85779-2.9444 1.1915-5.8283 1.143-9.8778 0.91455-9.2767 4.0344-10.614 3.5299-1.5131 4.2603-3.1525 5.2456-11.773 0.40588-3.5514 1.0277-7.288 1.3817-8.3037 0.65416-1.8766 1.0389-2.0997 4.9391-2.8641 3.3146-0.6496 4.2778-1.8923 6.0365-7.7878 3.574-11.981 4.5118-13.579 8.3654-14.252 4.6844-0.81885 6.1733-2.3907 11.187-11.811 5.9522-11.183 9.3411-14.087 13.247-11.351 2.3235 1.6274 13.009 20.994 26.861 48.683 6.1824 12.358 10.726 20.423 12.835 22.784l1.6528 1.8498 3.3031-1.0804c4.3884-1.4354 7.4855-0.9222 9.549 1.582 0.8644 1.049 2.0024 1.9048 2.5289 1.9016 0.5266 0 3.7798-0.7282 7.2293-1.6113 7.3725-1.8875 13.422-2.146 15.674-0.6699 0.9349 0.6125 1.7027 1.8776 1.9546 3.2207 0.2283 1.2166 0.7365 2.4121 1.1295 2.6569 0.393 0.2447 5.8499 0.7653 12.126 1.157 9.2903 0.5797 11.803 0.9397 13.516 1.9362 2.5113 1.4613 2.9665 3.5905 1.5334 7.1721-0.9076 2.2685-0.8991 2.4875 0.118 3.0319 0.6029 0.3226 4.9117 1.046 9.5751 1.6075 13.773 1.6582 18.271 3.1444 19.529 6.4522 0.5076 1.3351 0.3422 2.0474-0.9042 3.8961-2.5388 3.7655-15.426 17.571-34.783 37.261-19.061 19.389-22.178 23.272-22.19 27.641-0.01 3.4452 2.1639 9.747 5.0621 14.682 3.5538 6.0511 4.4475 8.3451 4.5101 11.577 0.044 2.2878-0.2405 3.0105-1.619 4.1097-0.92 0.7336-1.6728 1.6906-1.6728 2.1267s1.4549 5.093 3.2331 10.349c3.4425 10.175 4.62 17.388 3.0018 18.389-0.4603 0.2844-2.6879 0.6765-4.9503 0.8713-4.0909 0.3522-4.113 0.3644-4.0496 2.24 0.035 1.0373 0.8109 5.9688 1.7241 10.959s1.8458 11.711 2.0724 14.935c0.4605 6.5505-0.1064 7.9256-3.5816 8.6889-2.7393 0.6016-12.303-3.6818-44.508-19.934-15.683-7.9141-30.584-15.084-33.114-15.934-5.6036-1.8811-10.515-2.014-13.231-0.3581-1.0656 0.6497-3.7434 3.1986-5.9508 5.664-5.0456 5.6355-7.6199 7.4227-11.846 8.2242-3.7558 0.7123-8.6022 3.4486-14.587 8.2357-4.8564 3.8847-8.3843 5.973-11.015 6.5201-1.6781 0.349-2.2009 0.1219-3.6304-1.5769-2.2018-2.6166-3.6154-2.3362-13.277 2.6335-12.638 6.501-19.305 9.0399-21.679 8.2554zm98.367-53.844c0.8256-0.8256 2.522-3.6524 3.7697-6.2818 1.2478-2.6294 3.2415-5.7255 4.4305-6.8803 2.985-2.8989 3.9049-5.4692 4.9281-13.769 1.006-8.1604 2.214-11.081 5.9972-14.499 3.5288-3.1881 9.32-5.9351 21.435-10.167 11.354-3.9667 16.626-6.3799 18.522-8.4795 1.2292-1.3609 1.2283-1.3786-0.2222-4.1128-0.8012-1.5102-2.9721-3.9551-4.8242-5.4331-1.8522-1.4779-4.7848-4.2971-6.5169-6.2649-2.5285-2.8725-4.5052-4.2714-10.026-7.0955-5.39-2.7571-7.3018-4.0954-8.8419-6.1897-3.7587-5.111-5.1416-12.311-6.3537-33.079-0.3705-6.3481-1.0097-12.572-1.4204-13.83-0.6464-1.9803-1.0425-2.3159-2.947-2.4969-3.1494-0.2994-6.2818 0.8066-9.7201 3.432-1.6467 1.2573-4.2786 2.6727-5.8486 3.1452-3.3198 0.9991-4.9952 2.2043-11.983 8.6199-2.8254 2.594-6.1979 5.088-7.4944 5.5423-5.5499 1.9443-15.049 0.4667-34.944-5.4356-8.1042-2.4043-12.926-2.8095-14.515-1.2199-1.2298 1.2298-1.2403 4.3179-0.034 10.013 0.51262 2.4201 0.93367 5.6733 0.93567 7.2293 7e-3 5.4997 1.2496 10.373 4.2296 16.591 2.5893 5.4023 2.9946 6.7792 2.9853 10.143-9e-3 3.3089-0.40802 4.6837-2.6597 9.167-1.4569 2.9009-5.8982 9.8005-9.8694 15.332-3.9712 5.5319-7.837 11.206-8.5906 12.609-1.2375 2.3039-1.2852 2.7284-0.49232 4.382 1.2107 2.525 3.3205 3.4186 8.1072 3.4335 5.5862 0.018 8.476 0.9271 10.074 3.171 1.1802 1.6575 1.6878 1.8631 4.5847 1.8573 1.7916 0 6.4362-0.5627 10.321-1.2425 8.0551-1.4096 11.792-1.0592 16.148 1.5144 3.4699 2.0499 5.4799 4.3082 12.353 13.879 5.8487 8.1447 14.678 17.916 16.188 17.916 0.4374 0 1.4707-0.6754 2.2962-1.501z" fill="#77d2f5"/>
<path d="m912.38 1242.3c-4.0911-0.7877-3.893-4.021 2.8396-46.34 4.0998-25.771 5.8295-39.968 5.4601-44.817-0.28914-3.7956-0.4451-4.1064-3.855-7.6812-1.9545-2.0491-3.8555-4.5917-4.2245-5.6501-0.71986-2.065-2.1186-2.9746-7.8698-5.1175-7.1128-2.6502-10.266-5.4416-10.266-9.087 0-2.3125-2.3306-4.636-10.659-10.627-5.4884-3.9479-8.6337-7.7062-7.9469-9.4958 0.6604-1.721-2.4062-6.0962-9.699-13.838-7.7167-8.1915-10.506-12.766-9.4613-15.514 1.0033-2.6388-0.28264-2.3809 63.226-12.684 23.251-3.7721 24.078-3.9517 24.852-5.3991 0.35527-0.6638 0.80188-3.5431 0.99249-6.3985 0.46277-6.9328 1.0412-8.2777 4.0724-9.4684 3.1858-1.2514 4.0368-3.2543 4.9643-11.682 1.0408-9.4589 1.5029-10.292 6.1344-11.056 3.2812-0.5411 4.7696-2.2778 6.1137-7.1329 3.3062-11.943 4.529-14.188 8.1119-14.892 5.2916-1.0406 6.7042-2.539 12.077-12.812 5.8499-11.184 9.5714-13.706 13.7-9.2845 2.2931 2.4556 10.042 16.653 24.468 44.827 9.8933 19.323 13.011 24.798 15.113 26.543 0.7695 0.6386 1.5311 0.5927 3.982-0.2402 4.2427-1.4419 7.918-0.8275 9.6567 1.6143 1.6005 2.2478 2.1403 2.2631 9.7791 0.2784 7.0076-1.8207 13.707-2.0795 15.804-0.6106 0.7546 0.5286 1.5604 1.9653 1.7907 3.1928 0.2692 1.4347 0.8955 2.4269 1.7539 2.7783 0.7343 0.3006 6.1752 0.7948 12.091 1.0983 8.9012 0.4566 11.123 0.7655 12.887 1.7919 2.5403 1.4783 2.9995 3.593 1.561 7.1882-0.9076 2.2685-0.8991 2.4875 0.118 3.0319 0.6029 0.3226 4.9117 1.046 9.5751 1.6075 13.636 1.6417 18.29 3.1955 19.558 6.5282 0.4765 1.2535 0.2744 2.0136-1.0401 3.9103-2.7095 3.9098-16.579 18.765-34.894 37.375-9.5277 9.6809-18.259 18.969-19.403 20.641-3.9288 5.7418-3.4169 9.7146 2.8569 22.172 4.8826 9.6949 5.351 12.741 2.3297 15.15l-1.743 1.3898 1.3468 4.2698c0.7407 2.3484 2.357 7.4685 3.5916 11.378 2.2904 7.2522 2.8965 12.845 1.4864 13.717-0.4171 0.2578-2.6095 0.6281-4.8719 0.8229-4.0933 0.3524-4.113 0.3634-4.0412 2.24 0.04 1.0373 0.8256 6.1285 1.7466 11.314 0.921 5.1853 1.8503 11.905 2.0653 14.933 0.4373 6.161-0.1776 7.5825-3.6054 8.3354-2.7398 0.6017-12.31-3.6852-44.474-19.923-15.664-7.9075-30.565-15.077-33.114-15.933-5.6386-1.8928-10.543-2.0295-13.265-0.3697-1.0656 0.6497-3.7434 3.1986-5.9508 5.664-5.0561 5.6473-7.6196 7.4227-11.886 8.2317-3.9771 0.7543-6.8788 2.3618-13.988 7.749-10.006 7.5829-12.156 8.3559-15.086 5.4256-2.5728-2.5728-3.844-2.3143-13.79 2.8041-12.473 6.4186-18.142 8.5952-20.97 8.0506zm98.204-53.727c0.7147-0.7779 2.3482-3.536 3.6302-6.1291 1.2819-2.5932 3.2787-5.7049 4.4372-6.915 2.9283-3.0588 3.8795-5.7168 4.9378-13.799 1.8368-14.026 5.0428-16.931 27.09-24.543 11.212-3.8708 16.455-6.2675 18.52-8.465l1.5202-1.6182-1.2191-2.4417c-0.6705-1.3429-4.516-5.5652-8.5455-9.383-5.9536-5.6407-8.3745-7.4677-12.921-9.7509-11.475-5.7632-13.264-10.116-14.95-36.379-1.237-19.268-1.2604-19.347-5.7723-19.347-3.0271 0-5.0782 0.8759-9.5535 4.0797-1.601 1.1462-4.0575 2.3903-5.4589 2.7648-2.5854 0.6909-5.3428 2.731-11.624 8.6003-1.917 1.7912-4.7367 3.8951-6.2659 4.6753-2.5383 1.2949-3.357 1.3863-9.4014 1.0493-6.7137-0.3742-13.01-1.7519-24.851-5.4378-8.1638-2.5412-12.862-3.1947-15.373-2.1385-1.7605 0.7402-1.9121 1.0464-1.8918 3.821 0.0121 1.659 0.42653 4.8551 0.92086 7.1025 0.49433 2.2473 0.90872 5.5326 0.92087 7.3006 0.0376 5.4716 1.1487 9.7451 4.2051 16.173 2.453 5.1586 2.9372 6.7767 2.9158 9.7438-0.0469 6.518-1.0097 8.2703-17.636 32.099-4.7461 6.8018-5.2576 8.5983-3.1468 11.052 1.4095 1.6386 1.9769 1.8014 7.8738 2.2581 6.9449 0.538 8.2518 0.9884 9.8221 3.3849 0.8944 1.3651 1.5126 1.5971 4.2544 1.5971 1.7644 0 5.8822-0.4558 9.1508-1.013 6.9717-1.1883 12.747-0.9488 16.1 0.6678 3.5023 1.6887 6.8795 5.3453 13.945 15.099 6.8891 9.5099 14.048 17.307 15.89 17.307 0.6479 0 1.7627-0.6365 2.4774-1.4144z" fill="#6ad1f4"/>
<path d="m910.46 1241.1c-0.91078-0.9107-1.0149-1.8836-0.68973-6.4434 0.42779-5.9985 2.4092-20.01 5.6934-40.26 3.7582-23.173 4.9634-32.759 5.0301-40.008l0.0644-7.0047-3.5649-3.7404c-1.9607-2.0571-3.9679-4.7041-4.4604-5.8821-0.97279-2.3269-1.5055-2.6673-8.8218-5.6378-6.1707-2.5054-9.2411-5.2424-9.2411-8.2376 0-2.5594-1.7187-4.3353-10.569-10.921-5.9276-4.4108-8.605-7.5383-7.939-9.2737 0.68493-1.7849-2.1362-5.8657-9.4187-13.624-11.397-12.142-12.798-16.55-5.887-18.526 1.8289-0.5231 12.943-2.5158 24.699-4.4284 63.996-10.412 58.535-9.3884 59.477-11.148 0.37788-0.7061 0.82133-3.5816 0.98544-6.39 0.39779-6.8072 0.99153-8.1899 4.0292-9.3831 3.203-1.2582 3.9417-3.0643 5.1349-12.556 0.99403-7.9072 1.9156-9.8837 4.6083-9.8837 2.2944 0 4.5146-1.0823 5.5914-2.7257 0.54939-0.8384 1.8229-4.4072 2.83-7.9306 1.8972-6.6376 3.4167-9.8933 5.0378-10.794 0.51862-0.28818 2.1796-0.83325 3.691-1.2112 3.6306-0.90802 5.4957-3.0589 9.9464-11.471 6.488-12.263 10.031-14.818 14.263-10.287 2.3109 2.4747 10.205 16.944 24.408 44.736 9.7839 19.145 13.042 24.866 15.164 26.627 0.7579 0.6291 1.6499 0.5771 4.5464-0.265 4.3214-1.2562 7.7058-0.5568 9.3346 1.929 1.2744 1.9449 1.9942 1.9451 9.6241 0 7.0976-1.8081 13.657-2.0652 15.725-0.6163 0.7546 0.5286 1.5604 1.9653 1.7907 3.1928 0.2678 1.4276 0.8998 2.4331 1.7539 2.7906 0.7343 0.3074 6.2016 0.817 12.15 1.1326 8.8109 0.4674 11.198 0.7971 12.887 1.7796 2.4785 1.4421 2.9291 3.5879 1.5022 7.1538-0.9076 2.2685-0.8991 2.4876 0.118 3.0319 0.6029 0.3227 4.9117 1.0461 9.5751 1.6076 13.636 1.6417 18.29 3.1954 19.558 6.5282 0.4765 1.2534 0.2744 2.0135-1.0401 3.9103-2.6776 3.8638-16.465 18.633-35.184 37.688-9.6809 9.8549-18.428 19.135-19.438 20.622-3.3383 4.9148-2.5822 12.612 1.9431 19.78 5.3027 8.4001 6.583 14.36 3.6655 17.064-0.8643 0.8011-1.5716 1.8266-1.5716 2.2788 0 0.4523 1.4518 5.0874 3.2262 10.3 3.4376 10.099 4.623 17.313 3.0087 18.311-0.4603 0.2845-2.6879 0.6766-4.9503 0.8714l-4.1134 0.3541 0.093 2.2002c0.051 1.2102 0.8206 6.1606 1.7095 11.001s1.8082 11.42 2.0428 14.62c0.4771 6.5064-0.091 7.8833-3.5669 8.6468-2.7353 0.6007-12.295-3.6792-44.283-19.827-30.11-15.199-35.69-17.612-40.875-17.674-4.2808-0.051-6.1925 1.0265-10.958 6.1771-5.9317 6.411-8.3106 8.1395-11.848 8.6087-3.4838 0.4622-8.2048 3.1111-15.25 8.5567-4.6671 3.6074-8.3124 5.7675-11.125 6.5922-1.0798 0.3166-1.8925-0.057-3.3999-1.5649-1.722-1.7219-2.2699-1.9267-4.1909-1.5664-1.2155 0.2281-5.6478 2.2039-9.8497 4.3908-14.733 7.6679-20.169 9.2978-22.67 6.797zm100.13-52.518c0.7147-0.7779 2.3482-3.536 3.6302-6.1291 1.2819-2.5932 3.2787-5.7049 4.4372-6.915 2.9361-3.0669 3.9492-5.889 5.015-13.97 1.8161-13.769 4.9067-16.59 26.403-24.098 11.942-4.1715 17.141-6.5335 19.117-8.6858l1.5334-1.6706-1.2191-2.4688c-0.6792-1.3755-4.473-5.5355-8.5666-9.3936-5.8886-5.5499-8.4472-7.48-12.887-9.7211-11.521-5.8157-13.227-10.067-14.97-37.298-0.5475-8.5533-1.28-15.501-1.7348-16.455-0.6176-1.2952-1.315-1.6941-3.2373-1.8517-3.407-0.2794-4.7341 0.155-8.6015 2.8153-1.8535 1.2749-5.0736 2.9824-7.1558 3.7943-2.8069 1.0945-5.3123 2.8725-9.6899 6.8767-3.2473 2.9704-7.0663 5.9284-8.4866 6.5734-5.3201 2.416-15.416 1.1624-32.571-4.0443-10.758-3.2654-14.467-3.8431-16.828-2.6218-1.7132 0.886-1.9013 1.279-1.8915 3.9536 6e-3 1.6335 0.43033 4.95 0.94295 7.3701 0.51261 2.4201 0.93203 5.7053 0.93203 7.3006 0 5.0678 1.1603 9.5017 4.1106 15.708 5.4135 11.387 4.2203 15.525-10.297 35.708-9.8153 13.646-10.1 14.312-7.4394 17.406 1.3397 1.5575 1.988 1.7392 7.8158 2.1906 6.9449 0.538 8.2518 0.9884 9.8221 3.3849 0.92261 1.4081 1.4726 1.5945 4.6466 1.5752 1.9801-0.012 5.8632-0.4308 8.6292-0.9306 14.125-2.5521 18.823-0.2239 29.195 14.468 7.8314 11.094 14.665 18.521 17.057 18.538 0.5448 0 1.5752-0.6296 2.2899-1.4075z" fill="#66cdf3"/>
<path d="m910.46 1241.1c-1.805-1.805-1.0963-7.9895 6.2842-54.836 2.9871-18.96 4.3303-31.034 3.9396-35.411-0.29899-3.3486-0.59199-3.9142-3.8517-7.4351-1.9405-2.0959-3.9033-4.7082-4.3619-5.8051-0.90932-2.175-1.4884-2.5378-8.7602-5.4903-6.1707-2.5054-9.2411-5.2424-9.2411-8.2376 0-2.5186-1.9688-4.6229-9.4295-10.078-7.3082-5.344-9.21-7.5751-8.8524-10.385 0.234-1.8389-2.8712-6.1386-9.6451-13.355-10.601-11.294-12.617-16.412-7.1583-18.174 3.1884-1.0289 16.487-3.356 45.458-7.9549 29.95-4.7543 38.656-6.327 39.457-7.1282 0.90402-0.904 1.6873-5.1419 1.7034-9.2164 0.0174-4.3926 1.0007-6.1904 4.0925-7.4822 1.1592-0.4844 2.4708-1.5411 2.9147-2.3483s1.2812-5.0851 1.8606-9.5064c1.1929-9.1028 1.766-10.162 5.7875-10.702 3.2844-0.4406 5.0322-2.3347 6.3212-6.8506 0.52208-1.8292 1.408-4.9311 1.9688-6.8933 1.5269-5.3429 3.254-7.5319 6.619-8.3892 5.3555-1.3643 5.9818-2.0673 12.247-13.747 5.6077-10.454 8.8837-12.553 13.031-8.3505 2.4095 2.4419 9.7639 15.857 23.15 42.227 9.8827 19.468 14.052 26.867 16.271 28.875 1.2395 1.1217 1.4095 1.1235 4.8184 0.051 4.233-1.3314 7.6665-0.6383 9.3171 1.8809 1.2943 1.9753 2.5281 1.9749 9.9105 0 7.511-2.0122 13.789-2.1313 15.624-0.2962 0.7023 0.7023 1.4498 2.1411 1.661 3.1973 0.2221 1.1103 0.9431 2.1588 1.7091 2.4854 0.7288 0.3106 6.1907 0.8178 12.138 1.1269 8.8286 0.459 11.193 0.7836 12.887 1.7691 2.4804 1.4432 2.9312 3.588 1.504 7.1548-0.9099 2.274-0.9007 2.4867 0.1313 3.039 0.6102 0.3266 5.6262 1.1789 11.147 1.894 11.173 1.4473 13.908 2.1349 16.212 4.0755 2.6462 2.2292 2.63 3.6396-0.081 7.0691-4.4448 5.6232-15.623 17.536-34.58 36.854-19.674 20.048-21.49 22.365-21.49 27.4 0 3.2447 1.9969 9.3591 4.1924 12.837 5.3027 8.4001 6.583 14.36 3.6655 17.064-0.8643 0.8011-1.5716 1.8509-1.5716 2.3329 0 0.4821 1.4509 5.1172 3.2241 10.3 2.1165 6.1862 3.3329 10.876 3.5408 13.651 0.3097 4.1341 0.2794 4.2413-1.3791 4.8719-0.9327 0.3546-3.1007 0.6447-4.8178 0.6447-3.9369 0-4.2246 0.6533-2.871 6.5205 1.5007 6.5052 2.8671 15.594 3.3195 22.082 0.3694 5.2983 0.3064 5.7368-0.9923 6.9029-1.9344 1.7369-5.0476 1.4788-10.711-0.888-2.5931-1.0837-19.142-9.1844-36.775-18.001-35.098-17.55-38.379-18.831-43.616-17.026-3.005 1.0353-5.3195 2.8868-8.6002 6.8797-3.4974 4.2565-7.591 7.1015-10.961 7.6176-3.5419 0.5424-8.297 3.1978-14.773 8.2497-4.8966 3.8199-8.589 6.0334-11.477 6.8804-1.0754 0.3153-1.8862-0.051-3.3487-1.5136-1.0613-1.0613-2.5661-1.9297-3.3439-1.9297s-6.2464 2.4079-12.153 5.351c-15.14 7.5446-18.809 8.6056-21.264 6.15zm100.13-52.519c0.7147-0.7779 2.3482-3.536 3.6302-6.1291 1.2819-2.5932 3.2787-5.7049 4.4372-6.915 2.9374-3.0683 3.9956-6.0035 5.0456-13.995 1.8002-13.701 4.7171-16.301 27.296-24.331 12.406-4.4115 18.073-7.1603 19.012-9.2209 1.0268-2.2534-0.9786-5.0899-8.9621-12.677-5.8888-5.5962-8.2903-7.4089-12.887-9.727-11.737-5.9192-13.232-9.7049-15.048-38.102-1.1377-17.792-1.1955-17.946-6.5964-17.555-2.9636 0.2143-4.1982 0.6898-6.8539 2.6392-1.7816 1.3078-5.0072 3.0624-7.1681 3.8992s-4.7809 2.2978-5.8222 3.2467c-1.0414 0.949-3.7218 3.3961-5.9566 5.438-5.9301 5.4185-8.2769 6.2892-15.691 5.8214-6.1686-0.3892-12.545-1.8166-25.178-5.6365-9.6462-2.9167-13.369-3.401-15.486-2.0142-1.534 1.0051-1.6063 1.2912-1.3265 5.2475 0.16277 2.3015 0.60606 6.1647 0.98512 8.5849 0.37904 2.4203 0.96259 6.6635 1.2968 9.4295 0.46087 3.8146 1.2629 6.3948 3.3214 10.685 2.2384 4.6649 2.7528 6.4289 2.9367 10.07 0.21124 4.1831 0.0786 4.6944-2.528 9.7459-1.513 2.9321-6.352 10.383-10.753 16.558s-8.1735 11.908-8.3827 12.742c-0.52432 2.089 0.78997 4.9564 2.663 5.8098 0.85727 0.3906 3.3134 0.7169 5.458 0.7252 5.7664 0.022 8.6618 0.878 10.489 3.1006 1.426 1.7344 1.9331 1.9242 5.1277 1.9191 1.9498 0 5.9102-0.4587 8.8008-1.0124 6.4705-1.2394 12.512-0.9129 15.942 0.8618 3.495 1.8078 7.3609 6.0304 14.138 15.443 6.7516 9.3764 13.565 16.762 15.463 16.762 0.7134 0 1.8817-0.6365 2.5964-1.4144z" fill="#57caf3"/>
<path d="m910.54 1241.2c-1.8052-1.8052-1.2311-7.4528 4.3729-43.016 4.078-25.88 5.9546-40.171 5.9546-45.348 0-4.5979-1.0764-7.0599-4.5086-10.312-1.4222-1.3477-2.9534-3.3301-3.4027-4.4053-1.086-2.5991-1.7963-3.1161-6.911-5.0297-8.3128-3.1102-11.58-5.8073-11.58-9.5592 0-2.0847-3.1118-5.2936-9.4295-9.7237-6.8065-4.7728-9.2067-7.584-8.8524-10.368 0.23664-1.8596-2.9666-6.3067-9.7035-13.471-10.556-11.227-12.558-16.314-7.0999-18.046 3.2797-1.0414 13.821-2.8891 43.38-7.6039 36.953-5.894 41.813-6.8255 42.314-8.1092 0.22255-0.5701 0.62479-3.8434 0.89387-7.274 0.42238-5.3851 0.68313-6.3945 1.908-7.3864 0.78034-0.6319 1.7625-1.1489 2.1825-1.1489s1.3925-0.6693 2.1611-1.4874c1.3929-1.4827 1.6805-2.7676 3.1634-14.132 0.64815-4.9674 1.8576-7.0113 4.1486-7.0113 3.2978 0 5.1928-1.2757 6.5371-4.4004 0.72447-1.6841 1.3172-3.3485 1.3172-3.6987 0-1.668 3.29-10.777 4.4039-12.193 0.78251-0.9948 2.1697-1.7542 3.6664-2.0071 1.3242-0.22372 3.2325-0.91626 4.2408-1.539 1.7917-1.1066 2.5745-2.2961 8.7208-13.251 5.4366-9.6902 8.3825-11.431 12.422-7.3386 2.3343 2.3647 10.381 17.103 24.428 44.742 13.244 26.058 15.094 28.706 18.712 26.77 0.701-0.3752 2.8745-0.6821 4.83-0.6821 3.1638 0 3.7379 0.2078 5.2104 1.8859 2.0063 2.2864 2.5847 2.3039 10.428 0.3143 7.8638-1.9948 13.412-2.0909 15.37-0.2662 0.7706 0.7179 1.5685 2.1424 1.7731 3.1655 0.2046 1.023 0.8944 2.1396 1.5327 2.4813 0.6384 0.3416 6.0946 0.8581 12.125 1.1476 9.0676 0.4354 11.326 0.7372 13.058 1.7444 2.4737 1.4393 3.0373 4.0879 1.5016 7.0576-0.5389 1.0421-0.9798 2.0403-0.9798 2.2181 0 0.9048 3.0821 1.6547 10.43 2.5378 13.501 1.6226 18.589 3.2771 19.79 6.4363 0.5136 1.3509 0.3463 2.0389-0.9492 3.9032-2.6788 3.8549-17.467 19.66-36.281 38.776-10.48 10.648-18.563 19.382-19.33 20.886-2.4793 4.86-1.3323 11.443 3.4166 19.608 5.2365 9.0037 6.0659 13.247 3.1224 15.975-0.8643 0.8011-1.571 1.8484-1.5704 2.3273 7e-4 0.479 1.4353 5.1142 3.1881 10.3 3.3366 9.8725 4.6062 17.298 3.1152 18.219-0.4279 0.2644-2.6117 0.628-4.8529 0.8079-2.665 0.2139-4.1914 0.6306-4.4116 1.2043-0.1851 0.4825 0.2705 3.7657 1.0124 7.296 1.5897 7.564 3.1753 19.055 3.1926 23.137 0.013 3.094-0.9805 4.4976-3.6436 5.1469-3.055 0.7449-14.112-4.2169-50.092-22.479-36.836-18.696-36.944-18.715-47.099-8.0722-5.9337 6.2186-8.0319 7.7429-10.658 7.7429-2.3216 0-8.9123 3.6627-15.137 8.4123-9.1256 6.963-13.082 8.2936-15.172 5.1033-0.67949-1.0371-1.6097-1.5716-2.735-1.5716-0.93788 0-6.5922 2.4274-12.565 5.3941-5.973 2.9668-11.998 5.7957-13.389 6.2864-3.3193 1.1711-6.4412 1.1321-7.669-0.096zm100.04-52.603c0.7147-0.7779 2.3347-3.4878 3.6001-6.0218 1.2653-2.5341 3.3892-5.7884 4.7196-7.2318 2.7606-2.9949 4.0546-6.7952 5.0248-14.758 0.8041-6.5992 2.2338-9.8058 5.8517-13.125 3.8101-3.4952 6.8902-4.9805 19.956-9.6229 12.514-4.4465 18.104-6.9276 19.78-8.7803 1.0031-1.1084 1.0652-1.6069 0.4536-3.64-1.0941-3.6371-15.844-17.272-21.413-19.793-5.9655-2.7013-8.5419-4.9755-10.73-9.4719-2.4747-5.0842-3.5436-11.647-4.4674-27.429-0.4137-7.0668-1.0718-14.139-1.4625-15.716l-0.7104-2.8672h-4.1472c-3.856 0-4.4119 0.1857-7.9168 2.6447-2.0733 1.4546-5.3498 3.2359-7.2811 3.9585-2.5058 0.9375-5.0987 2.7575-9.0537 6.3548-3.0482 2.7726-6.6654 5.6257-8.0383 6.3403-5.5092 2.8677-14.171 1.9052-32.707-3.6345-11.833-3.5362-15.744-4.0367-17.899-2.2901-1.8277 1.4816-1.9048 3.9789-0.35113 11.365 0.52929 2.5161 0.96235 5.9321 0.96235 7.5911 0 5.035 1.1447 9.511 3.9385 15.4 2.3529 4.96 2.6622 6.13 2.6622 10.071 0 5.9441-1.8728 9.6878-11.878 23.745-10.204 14.336-10.578 15.088-9.1114 18.307 0.94478 2.0736 3.0696 2.9248 7.3467 2.9432 5.6021 0.024 8.9807 1.0376 10.826 3.2481 1.4663 1.7564 1.9364 1.9289 5.0459 1.8521 1.8859-0.046 5.9749-0.5045 9.0866-1.0176 7.2239-1.1912 9.372-1.1842 13.508 0.044 4.3335 1.2869 8.4132 5.3575 16.01 15.974 6.4022 8.9477 13.879 16.973 15.813 16.973 0.7059 0 1.8681-0.6365 2.5828-1.4144z" fill="#41c6f3"/>
<path d="m910.54 1241.2c-1.8054-1.8055-1.2303-7.4615 4.3739-43.016 4.7828-30.343 6.1473-41.507 5.7711-47.216-0.38599-5.8589-0.054-6.5223 3.0149-6.0243 3.1385 0.5093 5.1836 1.9512 6.4074 4.5174 1.2576 2.6373 2.8594 3.2642 9.4673 3.7052 5.6303 0.3759 7.1427 0.9297 9.2596 3.3907 1.5585 1.8119 2.3363 1.8871 11.637 1.1241 5.6607-0.4644 6.0829-0.4128 8.1 0.9905 2.8745 1.9998 5.7348 6.9506 11.959 20.7 2.8842 6.3707 6.5385 14.114 8.1207 17.206 1.5822 3.0927 2.8186 6.3265 2.7474 7.1861-0.34236 4.1366-10.101 13.907-13.892 13.908-2.6422 6e-4 -8.7473 3.2908-15.11 8.1425-9.5352 7.2712-13.382 8.6046-15.5 5.3726-0.69443-1.0599-1.6055-1.5716-2.798-1.5716-0.97256 0-6.586 2.4129-12.474 5.362-14.913 7.4691-18.717 8.5917-21.086 6.2228zm169.06-1.7802c-7.0759-2.6541-18.218-8.0373-48-23.191-16.373-8.3308-29.9-15.488-30.06-15.904-0.4733-1.2333 2.7369-6.9168 4.8111-8.5177 1.0558-0.8149 2.7196-2.1062 3.6973-2.8695 0.9776-0.7633 2.803-3.5183 4.0563-6.1222 1.2534-2.6038 3.3688-5.9397 4.7011-7.413 2.6033-2.8789 3.3837-4.5581 4.563-9.8189 0.8759-3.9067 3.384-7.1045 7.0319-8.9656 4.2611-2.1739 11.195-3.5624 29.367-5.8812 9.6877-1.2362 18.003-2.3969 18.478-2.5792 1.4447-0.5544 4.5507 2.6367 7.5545 7.7615 5.3378 9.1068 6.204 13.393 3.2294 15.979-0.8643 0.7516-1.5716 1.8362-1.5716 2.4103s1.4517 5.4028 3.226 10.73c3.2296 9.698 4.5207 16.956 3.1652 17.794-0.3752 0.2319-2.558 0.5968-4.8506 0.8108-2.6831 0.2506-4.2875 0.6998-4.5028 1.2607-0.1839 0.4794 0.2727 3.76 1.0146 7.2903 1.5897 7.564 3.1753 19.055 3.1926 23.137 0.021 4.9542-3.0797 6.3465-9.1028 4.0872zm-4.799-106.55c-2.5328-2.6045-3.82-4.5188-4.3327-6.4435-0.6146-2.3069-1.9993-3.9548-8.7946-10.466-9.9475-9.5314-13.91-15.025-14.309-19.836-0.3551-4.2811 0.6049-11.587 3.3821-25.741 4.0549-20.666 4.8455-21.982 14.578-24.267 10.165-2.3864 14.692-1.6516 15.963 2.5906 0.4034 1.3465 1.2906 2.7463 1.9715 3.1107s5.9353 0.8564 11.676 1.0933c12.366 0.5104 15.327 1.4343 15.661 4.8877 0.1067 1.1017-0.2469 2.8556-0.7858 3.8977s-0.9798 2.0403-0.9798 2.2181c0 0.915 3.1574 1.6877 10.46 2.5598 13.519 1.6145 18.558 3.2532 19.765 6.4263 0.5171 1.3603 0.3618 2.0264-0.8795 3.771-5.7462 8.076-56.432 59.953-58.546 59.922-0.6745-0.01-2.8479-1.6857-4.8298-3.7237zm-169.42-0.033c-7.9702-3.0689-10.916-5.6861-10.916-9.6974 0-1.8901-2.5694-4.5622-7.7784-8.0895-6.2337-4.2212-10.452-8.5197-10.452-10.651 0-3.1232-2.2524-6.4562-9.755-14.435-10.558-11.229-12.55-16.296-7.0999-18.059 2.96-0.9574 19.649-3.8598 47.658-8.288 13.311-2.1045 27.687-4.5177 31.946-5.3625 4.259-0.8449 8.0072-1.3733 8.3294-1.1742 0.67181 0.4152 0.76699 2.2272 0.19524 3.7172-0.21477 0.5596-1.217 1.445-2.2272 1.9674-2.8895 1.4942-3.1595 3.1397-1.7626 10.743 0.68044 3.7036 1.2368 8.0229 1.2364 9.5985s0.61524 5.835 1.3681 9.4654c0.83155 4.0098 1.1936 7.2936 0.92246 8.3662-0.55172 2.1823-8.2481 10.266-18.634 19.572-10.838 9.711-16.413 14.192-17.567 14.117-0.53779-0.034-2.9961-0.84-5.4629-1.7898zm87.997-71.688c-5.5474-1.4542-6.4184-1.8897-24.961-12.478l-15-8.5649 0.39112-3.156c2.1664-17.481 2.7014-19.186 6.0193-19.186 4.5779 0 5.7365-1.5557 8.5093-11.425 2.3758-8.4565 3.2191-9.6633 7.6541-10.953 4.2473-1.2347 6.0312-2.9305 8.9619-8.5187 8.1461-15.533 11.28-18.202 15.887-13.529 1.1352 1.1514 4.7971 7.1627 8.1377 13.358 8.7771 16.279 30.072 58.366 30.072 59.433 0 1.954-3.8497 3.3658-10.098 3.7031-5.9255 0.3199-6.074 0.3672-10.372 3.3021-2.3985 1.6377-4.7239 2.9769-5.1676 2.9761-1.42 0-6.6852 2.9619-8.2609 4.6511-1.8818 2.0174-5.1419 2.1242-11.773 0.3858z" fill="#38c3f2"/>
<path d="m910.54 1241.2c-0.5926-0.5926-0.98785-2.0725-0.98785-3.6987 0-3.5434 2.0332-18.715 4.7216-35.232 4.5373-27.876 6.15-40.23 6.2883-48.172 0.0761-4.3669 0.34974-8.2819 0.60821-8.7002 0.62786-1.0158 4.4829-0.2778 6.6652 1.2761 0.91682 0.6529 2.0114 2.0187 2.4325 3.0353 0.96802 2.337 2.8168 3.0237 9.3067 3.4569 5.6555 0.3776 7.1382 0.926 9.3061 3.442 1.3405 1.5558 1.6927 1.6402 5.7237 1.3713 10.059-0.6712 12.557-0.4577 14.389 1.2295 2.7767 2.557 5.4514 7.218 10.642 18.545 2.6934 5.8777 6.414 13.723 8.268 17.434s3.371 7.4038 3.371 8.2062c0 2.1595-3.0777 6.615-7.1116 10.295-2.7565 2.5147-4.2903 3.4034-6.8049 3.9426-4.1938 0.8995-9.3558 3.6734-14.339 7.7054-8.9319 7.2272-14.011 9.0704-16.121 5.8504-0.69443-1.0599-1.6055-1.5716-2.798-1.5716-0.97256 0-6.586 2.4129-12.474 5.362-14.913 7.4691-18.717 8.5917-21.086 6.2228zm168.11-2.0713c-6.7623-2.6641-25.461-11.792-50.29-24.548-24.548-12.612-26.703-13.848-26.545-15.219 0.3084-2.6804 3.5409-7.0904 6.6232-9.0359 2.5224-1.592 3.3713-2.6846 5.449-7.0129 1.3537-2.8199 3.7251-6.5502 5.2699-8.2896 2.1686-2.4417 2.9881-3.9953 3.5957-6.8169 2.572-11.943 6.4268-13.634 40.642-17.834 13.259-1.6275 16.674-1.871 17.431-1.2429 0.5177 0.4297 2.2554 2.7759 3.8615 5.2139 5.9714 9.064 7.4088 14.884 4.3359 17.555-0.8643 0.7516-1.5716 1.8855-1.5716 2.5197 0 0.6343 1.4625 5.463 3.25 10.73 2.528 7.4495 3.2612 10.485 3.3004 13.664l0.05 4.0861-4.4004 0.6286c-5.9783 0.854-6.026 0.9005-5 4.8721 1.3938 5.3949 3.3392 17.489 3.8044 23.652 0.3801 5.0357 0.2934 5.9066-0.697 7.001-1.4339 1.5845-5.2006 1.6162-9.1085 0.077zm-2.8538-105.16c-1.6922-1.5598-3.6174-4.2705-4.7994-6.7577-1.6094-3.3865-3.5512-5.7199-10.519-12.64-9.4265-9.3621-12.648-13.974-13.108-18.764-0.3367-3.5033 1.0647-13.662 3.6745-26.636 3.8367-19.074 4.9385-20.865 14.175-23.033 10.267-2.4103 14.787-1.6878 16.062 2.5674 0.4034 1.3465 1.3043 2.7536 2.002 3.127s5.952 0.8813 11.676 1.1286c11.817 0.5106 14.795 1.3092 15.51 4.1598 0.3893 1.551 0.2006 2.4218-1.3023 6.0115-0.6944 1.6586 1.3994 2.355 10.182 3.3864 13.456 1.5802 18.493 3.207 19.692 6.359 0.7553 1.9864 0.2523 2.8354-5.6423 9.5246-12.702 14.414-52.118 54.171-53.707 54.171-0.5883 0-2.3412-1.1721-3.8954-2.6047zm-170.42-1.1339c-8.0401-3.0958-10.916-5.68-10.916-9.8079 0-1.9408-1.9439-3.9216-8.0464-8.1992-6.509-4.5625-10.184-8.3552-10.184-10.51 0-3.1733-1.8557-5.92-9.5353-14.113-10.799-11.521-12.801-16.528-7.3195-18.301 2.96-0.9574 19.649-3.8598 47.658-8.288 13.311-2.1045 27.687-4.5177 31.946-5.3625 4.259-0.8449 8.0072-1.3733 8.3294-1.1742 1.3179 0.8145 0.4239 3.0718-2.2431 5.6638-1.5559 1.5122-2.8288 3.1297-2.8288 3.5945s0.56576 3.9245 1.2573 7.6883c0.69149 3.7637 1.2573 7.9738 1.2573 9.3557 0 1.382 0.62026 5.6004 1.3784 9.3742l1.3784 6.8615-1.484 2.7975c-2.685 5.0613-32.79 32.436-35.424 32.211-0.4057-0.034-2.7559-0.84-5.2227-1.7898zm89.054-71.422c-2.2377-0.4851-6.481-2.1176-9.4295-3.6277-4.4157-2.2616-30.634-17.091-31.345-17.729-0.57508-0.5162 2.3717-19.314 3.234-20.63 0.71842-1.0964 1.7385-1.5777 3.8482-1.8155 4.5178-0.5092 4.3165-0.1838 8.2122-13.278 1.9055-6.4047 3.3867-8.2382 7.1722-8.8778 3.3715-0.56962 6.3025-3.4166 8.9335-8.6778 4.8567-9.7117 9.1286-15.535 11.397-15.535 2.5071 0 4.8764 1.9843 7.3211 6.1315 4.1692 7.0725 13.955 25.731 25.025 47.716 8.7082 17.294 10.363 21.005 9.7134 21.787-1.6382 1.9739-4.9366 2.9447-10.005 2.9447-4.9676 0-5.0379 0.023-9.6409 3.1431-2.5502 1.7288-5.0932 3.1432-5.6511 3.1432-1.4907 0-6.4113 2.7523-8.3035 4.6445-1.9052 1.9052-4.1 2.0434-10.482 0.6599z" fill="#44bceb"/>
<path d="m910.56 1241c-1.048-1.158-1.139-1.9286-0.76179-6.4514 0.50567-6.0635 2.5121-20.003 6.0038-41.711 3.8743-24.087 5.2414-35.73 4.8878-41.629-0.35717-5.9576 0.14222-6.8455 3.4427-6.1206 3.0035 0.6597 4.82 2.0532 6.1984 4.7551 1.3407 2.628 1.6255 2.7246 9.9266 3.3671 5.1111 0.3956 6.5154 0.9484 8.6228 3.3944 1.3405 1.5558 1.6927 1.6402 5.7237 1.3713 10.059-0.6712 12.557-0.4577 14.389 1.2295 2.7767 2.557 5.4514 7.218 10.642 18.545 2.6934 5.8777 6.414 13.723 8.268 17.434s3.371 7.4038 3.371 8.2062c0 2.1595-3.0777 6.615-7.1116 10.295-2.7565 2.5147-4.2903 3.4034-6.8049 3.9426-4.1938 0.8995-9.3558 3.6734-14.339 7.7054-8.9319 7.2272-14.011 9.0704-16.121 5.8504-0.66231-1.0109-1.6208-1.5755-2.6862-1.5824-0.91104-0.01-7.233 2.7219-14.049 6.062-13.778 6.7518-17.423 7.7442-19.603 5.3362zm164.64-3.4546c-3.4574-1.501-9.8223-4.4248-14.144-6.4973-10.001-4.7958-58.607-29.647-59.291-30.314-0.6602-0.6438 1.0358-4.7106 3.0848-7.3969 0.8737-1.1455 2.6896-2.6444 4.0352-3.3309 2.0598-1.0508 2.844-2.0845 4.9588-6.5357 1.3817-2.9082 3.776-6.7106 5.3208-8.45 2.1686-2.4417 2.9881-3.9953 3.5957-6.8169 2.572-11.943 6.4268-13.634 40.642-17.834 13.259-1.6275 16.674-1.871 17.431-1.2429 0.5177 0.4297 2.2554 2.7759 3.8615 5.2139 5.9714 9.064 7.4088 14.884 4.3359 17.555-0.8643 0.7516-1.5716 1.8855-1.5716 2.5197 0 0.6343 1.4625 5.463 3.25 10.73 2.528 7.4495 3.2612 10.485 3.3004 13.664l0.05 4.0861-4.4004 0.6286c-5.9792 0.8542-6.0274 0.9012-4.9926 4.8721 1.2348 4.7385 3.2676 17.62 3.7831 23.972 0.3844 4.7376 0.2959 5.5993-0.6865 6.6848-1.8277 2.0196-5.435 1.5866-12.562-1.5078zm0.6037-103.57c-1.6922-1.5598-3.6174-4.2705-4.7994-6.7577-1.6094-3.3865-3.5512-5.7199-10.519-12.64-9.4265-9.3621-12.648-13.974-13.108-18.764-0.3367-3.5033 1.0647-13.662 3.6745-26.636 3.8367-19.074 4.9385-20.865 14.175-23.033 10.267-2.4103 14.787-1.6878 16.062 2.5674 0.4034 1.3465 1.3043 2.7536 2.002 3.127s5.952 0.8813 11.676 1.1286c11.817 0.5106 14.795 1.3092 15.51 4.1598 0.3893 1.551 0.2006 2.4218-1.3023 6.0115-0.6871 1.6411 1.3607 2.3414 9.8602 3.3722 14.023 1.7007 18.406 3.0791 19.847 6.2418 0.4139 0.9083 0.7525 1.768 0.7525 1.9104 0 2.5139-57.546 61.916-59.982 61.916-0.5629 0-2.295-1.1721-3.8492-2.6047zm-170.42-1.1339c-8.0401-3.0958-10.916-5.68-10.916-9.8079 0-1.9408-1.9439-3.9216-8.0464-8.1992-6.509-4.5625-10.184-8.3552-10.184-10.51 0-3.1338-1.8549-5.9392-8.821-13.341-7.6723-8.1524-10.667-12.309-10.667-14.808 0-2.6907 0.58115-3.6041 2.7273-4.2866 2.6904-0.8557 22.474-4.2722 49.449-8.5397 12.274-1.9417 25.8-4.2275 30.058-5.0795 4.2578-0.8521 8.006-1.3857 8.3294-1.1859 1.3199 0.8158 0.42758 3.0716-2.241 5.6651-1.5559 1.5122-2.8288 3.1297-2.8288 3.5945s0.56576 3.9245 1.2573 7.6883c0.69149 3.7637 1.2573 7.9738 1.2573 9.3557 0 1.382 0.62026 5.6004 1.3784 9.3742l1.3784 6.8615-1.484 2.7975c-2.685 5.0613-32.79 32.436-35.424 32.211-0.4057-0.034-2.7559-0.84-5.2227-1.7898zm89.054-71.422c-2.2377-0.4851-6.481-2.1176-9.4295-3.6277-4.4157-2.2616-30.634-17.091-31.345-17.729-0.57508-0.5162 2.3717-19.314 3.234-20.63 0.71842-1.0964 1.7385-1.5777 3.8482-1.8155 4.5178-0.5092 4.3165-0.1838 8.2122-13.278 1.9055-6.4047 3.3867-8.2382 7.1722-8.8778 3.62-0.61159 6.0499-3.2041 10.089-10.764 5.91-11.061 8.5046-13.982 11.707-13.178 3.4191 0.85813 5.4531 4.2074 22.062 36.328 15.882 30.716 19.35 38.05 18.482 39.096-1.5882 1.9136-4.9375 2.884-9.9547 2.884-4.9676 0-5.0379 0.023-9.6409 3.1431-2.5502 1.7288-5.0932 3.1432-5.6511 3.1432-1.4907 0-6.4113 2.7523-8.3035 4.6445-1.9052 1.9052-4.1 2.0434-10.482 0.6599z" fill="#2ac0f1"/>
<path d="m910.56 1241c-1.048-1.158-1.139-1.9286-0.76179-6.4514 0.50524-6.0582 2.5088-19.98 6.0028-41.711 3.7843-23.537 5.1706-35.138 4.949-41.418-0.16368-4.6387-0.022-5.697 0.83532-6.2404 1.6242-1.0294 6.7401 1.188 8.0012 3.4679 2.0861 3.7715 2.0848 3.7708 8.6156 4.3554 6.5913 0.59 9.3961 1.3714 9.9316 2.7669 0.17913 0.4668 1.0271 1.3083 1.8843 1.8699 1.3811 0.905 2.2707 0.935 7.8134 0.2632 7.2518-0.8789 8.7436-0.6274 11.706 1.9736 2.17 1.9053 6.9546 10.593 11.056 20.075 1.1216 2.5931 3.9836 8.7178 6.36 13.61 2.3764 4.8926 4.3206 9.45 4.3206 10.128 0 2.7123-6.7337 10.663-10.819 12.775-1.2828 0.663-2.9174 1.2054-3.6326 1.2054-2.173 0-8.2242 3.4123-14.494 8.1731-9.5807 7.2751-13.317 8.5687-15.431 5.3425-0.66231-1.0109-1.6208-1.5755-2.6862-1.5824-0.91104-0.01-7.233 2.7219-14.049 6.062-13.778 6.7518-17.423 7.7442-19.603 5.3362zm164.64-3.4546c-3.4574-1.501-9.8223-4.4231-14.144-6.4935-9.6003-4.5991-58.576-29.654-59.291-30.332-0.662-0.6273 1.0411-4.7033 3.0848-7.3827 0.8737-1.1455 2.6822-2.6406 4.0188-3.3225 2.031-1.0362 2.8763-2.1444 5.1453-6.7457 1.4932-3.0283 3.8746-6.8116 5.292-8.4075 1.9735-2.222 2.8293-3.9165 3.6546-7.2355 0.5927-2.3837 1.7574-5.3715 2.5883-6.6395 1.8987-2.8976 7.6248-5.7904 14.134-7.1406 3.8051-0.7892 37.658-5.3267 39.742-5.3267 0.984 0 4.2186 3.9478 6.8238 8.3286 4.6668 7.8472 5.5093 12.369 2.7821 14.931-0.8643 0.8121-1.5716 2.03-1.5716 2.7066s1.4636 5.507 3.2524 10.734c2.542 7.4282 3.2629 10.396 3.3003 13.588l0.048 4.0842-4.4004 0.6305c-5.9796 0.8568-6.0273 0.9033-4.9926 4.874 1.2348 4.7385 3.2676 17.62 3.7831 23.972 0.3844 4.7376 0.2959 5.5993-0.6865 6.6848-1.8277 2.0196-5.435 1.5866-12.562-1.5078zm0.2461-104.12c-1.8053-1.8054-3.8327-4.692-4.7462-6.7578-1.262-2.854-3.261-5.2456-9.5824-11.464-8.6954-8.554-12.399-13.446-13.336-17.614-1.5195-6.7626 4.9455-41.401 8.7387-46.821 1.5557-2.2228 2.3401-2.6837 6.7622-3.9727 2.7512-0.802 7.1239-1.6117 9.717-1.7993 4.1431-0.2998 4.9156-0.1815 6.3715 0.9757 0.943 0.7495 1.8305 2.2432 2.0601 3.4673 0.2219 1.1828 0.8908 2.3503 1.4865 2.5944 0.5956 0.2442 5.892 0.6536 11.77 0.9098 16.156 0.7043 17.845 1.8942 14.474 10.192-0.6671 1.6418 1.3854 2.3428 9.8732 3.3722 14.023 1.7007 18.406 3.0791 19.847 6.2418 0.4139 0.9083 0.7525 1.768 0.7525 1.9104 0 2.5259-57.55 61.916-59.998 61.916-0.5717 0-2.4575-1.4182-4.1909-3.1515zm-169.8-0.5577c-7.6776-2.7725-11.176-5.7659-11.176-9.563 0-2.2559-1.155-3.5424-6.7565-7.5263-7.8418-5.5773-11.474-9.2041-11.474-11.457 0-3.1338-1.8549-5.9392-8.821-13.341-7.6723-8.1524-10.667-12.309-10.667-14.808 0-2.6907 0.58115-3.6041 2.7273-4.2866 2.6904-0.8557 22.474-4.2722 49.449-8.5397 12.274-1.9417 25.8-4.2275 30.058-5.0795 4.2578-0.8521 8.006-1.3857 8.3294-1.1859 1.3199 0.8158 0.42758 3.0716-2.241 5.6651-1.5559 1.5122-2.8288 3.1297-2.8288 3.5945s0.56576 3.9245 1.2573 7.6883c0.69149 3.7637 1.2581 7.9908 1.2592 9.3935 1e-3 1.4028 0.57544 5.5046 1.2765 9.1153 1.4382 7.4075 1.2503 8.6221-1.9614 12.677-3.7806 4.7734-31.688 29.561-33.147 29.442-0.23666-0.019-2.6146-0.824-5.2844-1.7881zm90.989-71.113c-5.4283-0.9546-10.151-3.0433-21.907-9.6886-19.931-11.266-20.858-11.872-20.801-13.595 0.17955-5.4008 1.7847-16.344 2.6684-18.191 0.92689-1.9377 1.4131-2.2509 4.0747-2.6247 4.672-0.6563 4.3876-0.1993 8.2906-13.318 1.876-6.3056 3.3482-8.179 6.9534-8.848 3.9538-0.73371 5.978-2.8021 9.955-10.172 6.3831-11.829 8.8166-14.614 12.06-13.799 2.373 0.59559 4.1915 2.8454 8.3583 10.341 4.9646 8.9306 22.755 43.343 28.444 55.02l4.5592 9.3579-1.7813 1.4204c-2.152 1.716-4.1921 2.1694-9.761 2.1694-4.0444 0-4.4433 0.1413-8.8716 3.1431-2.5502 1.7288-5.0646 3.1494-5.5876 3.157-1.7075 0.025-6.0751 2.3193-7.6521 4.0201-1.7898 1.9302-4.4602 2.4073-9.0023 1.6085z" fill="#24bdf1"/>
<path d="m910.56 1241c-1.048-1.158-1.139-1.9286-0.76179-6.4514 0.50524-6.0582 2.5088-19.98 6.0028-41.711 3.6759-22.862 5.1507-35.121 4.9537-41.175-0.0956-2.9388 0.0487-5.6969 0.32072-6.1291 1.3197-2.0966 7.3776 0.6294 9.1592 4.1215 1.4364 2.8155 1.9118 2.9967 9.4916 3.6171 6.0143 0.4922 6.6364 0.7232 9.4056 3.4925 1.8224 1.8224 2.2031 1.9436 4.9283 1.5698 8.175-1.1215 11.095-1.1116 13.315 0.045 3.0426 1.5856 6.0778 6.2335 10.683 16.36 2.1684 4.7679 6.0528 13.01 8.632 18.317 5.1694 10.635 5.2095 10.933 2.0862 15.473-3.3439 4.8603-9.1007 9.1399-12.295 9.1399-1.9576 0-7.7463 3.3249-13.879 7.9718-9.8889 7.4931-13.575 8.7944-15.705 5.5438-0.66231-1.0109-1.6208-1.5755-2.6862-1.5824-0.91104-0.01-7.233 2.7219-14.049 6.062-13.778 6.7518-17.423 7.7442-19.603 5.3362zm167.78-2.039c-7.0003-2.8281-22.156-10.231-48.562-23.722-26.101-13.335-27.817-14.314-27.817-15.878 0-2.4927 3.6899-7.5462 6.7318-9.2196 2.2192-1.2208 3.0626-2.3008 5.2318-6.6998 1.4224-2.8845 3.8038-6.671 5.292-8.4145 2.0983-2.4581 2.9504-4.1675 3.7944-7.6116 2.6654-10.876 6.8917-12.699 38.634-16.665l17.88-2.2339 1.8131 1.7301c2.3439 2.2366 7.0603 9.7985 8.2961 13.301 1.4226 4.0321 1.2408 6.4938-0.608 8.2306-0.8643 0.8121-1.5716 2.0164-1.5716 2.6764 0 0.6601 1.4496 5.4905 3.2214 10.734 3.4168 10.113 4.606 17.125 2.9928 17.649-0.4789 0.1554-2.7577 0.4642-5.0639 0.6862-2.6099 0.2512-4.315 0.7211-4.5159 1.2444-0.1774 0.4625 0.086 2.3519 0.5844 4.1986 1.2779 4.7303 3.2495 16.962 3.7719 23.401 0.3844 4.7376 0.296 5.5993-0.6864 6.6848-1.4753 1.6301-5.2474 1.5932-9.4194-0.092zm-2.8971-105.54c-1.7858-1.7859-3.8326-4.6917-4.7233-6.7057-1.2256-2.7713-3.329-5.2977-9.5483-11.469-9.104-9.0332-12.76-13.939-13.283-17.825-0.5547-4.1197 0.3232-12.62 2.4615-23.833 3.4163-17.915 5.3772-23.56 8.7996-25.329 2.7706-1.4327 11.829-3.4572 15.492-3.4622 3.7666-0.01 6.5282 1.7218 6.5282 4.0824 0 1.1462 1.2419 3.2235 2.088 3.4925 0.062 0.02 5.0627 0.2665 11.113 0.5487 12.347 0.5757 15.39 1.3572 16.086 4.1312 0.2486 0.9905 0 2.7014-0.608 4.2605-0.8194 2.086-0.8664 2.7602-0.2359 3.3823 0.4331 0.4273 4.465 1.2194 8.9597 1.7602 14.484 1.7426 18.851 3.0954 20.307 6.2911 0.4139 0.9083 0.7525 1.768 0.7525 1.9104 0 2.5362-57.565 61.916-60.024 61.916-0.5571 0-2.4311-1.4182-4.1645-3.1515zm-169.58-0.5922c-2.8391-0.9831-6.1136-2.4395-7.2766-3.2364-2.4132-1.6536-4.2759-4.4591-4.0297-6.0693 0.31004-2.0274-1.2935-3.7741-7.8537-8.555-7.4922-5.46-10.467-8.5447-10.467-10.854 0-2.9563-2.0913-6.0773-8.8263-13.172-9.5565-10.067-11.721-13.74-10.291-17.465 0.20345-0.5302 1.2643-1.2484 2.3574-1.596 2.6904-0.8557 22.474-4.2722 49.449-8.5397 12.274-1.9417 25.8-4.2275 30.058-5.0795 4.2578-0.8521 8.006-1.3857 8.3294-1.1859 1.3199 0.8158 0.42758 3.0716-2.241 5.6651-1.5559 1.5122-2.8288 3.1297-2.8288 3.5945s0.56576 3.9245 1.2573 7.6883c0.69149 3.7637 1.2573 8.007 1.2573 9.4294 0 1.4225 0.55673 5.6166 1.2372 9.3202 1.3764 7.4917 1.2338 8.4166-1.9002 12.316-3.3306 4.1445-28.663 27.016-32.076 28.961-0.67021 0.3818-2.6712-0.015-6.1551-1.2217zm86.674-72.074c-1.8996-0.5104-6.3205-2.4588-9.8243-4.3298-6.9157-3.6931-27.942-15.835-28.644-16.541-0.7385-0.7423 1.85-18.965 2.9276-20.609 0.7561-1.154 1.5522-1.5134 3.3518-1.5134 4.4119 0 4.9814-0.9138 8.8659-14.226 1.6709-5.7261 2.7469-6.9861 6.8961-8.0747 1.8581-0.48749 4.0078-1.4778 4.7773-2.2007s3.0349-4.346 5.0344-8.0514c6.3231-11.718 8.7684-14.508 12.004-13.696 3.4057 0.85477 5.4466 4.2178 22.156 36.51 13.734 26.541 19.169 37.825 18.635 38.688-1.0584 1.7125-5.6713 3.0831-10.422 3.0968-4.6778 0.014-4.8915 0.084-9.5521 3.1569-2.6219 1.7288-5.1364 3.146-5.5876 3.1493-1.6805 0.013-7.3459 3.0793-8.0218 4.3422-0.6071 1.1345-1.2645 1.3038-4.9218 1.268-2.3217-0.023-5.7754-0.459-7.675-0.9694z" fill="#27b4ea"/>
<path d="m910.52 1240.9c-1.2119-1.3392-1.2147-1.5271-0.1607-10.909 0.58986-5.2505 2.0754-15.77 3.3012-23.376 5.4507-33.824 6.7407-43.474 6.9588-52.055 0.1213-4.7735 0.39577-8.9626 0.6099-9.3091 0.45008-0.7282 3.5767-0.1741 5.9997 1.0633 0.90418 0.4617 2.1179 1.8383 2.6971 3.0589 0.57925 1.2207 1.5368 2.4739 2.1278 2.7849 0.59105 0.3111 3.762 0.7714 7.0466 1.0231 6.6404 0.5088 7.2148 0.7109 10.034 3.5304 1.8224 1.8224 2.2031 1.9436 4.9283 1.5698 8.175-1.1215 11.095-1.1116 13.315 0.045 3.0426 1.5856 6.0778 6.2335 10.683 16.36 2.1684 4.7679 6.0528 13.01 8.632 18.317 5.1694 10.635 5.2095 10.933 2.0862 15.473-3.3439 4.8603-9.1007 9.1399-12.295 9.1399-1.9576 0-7.7463 3.3249-13.879 7.9718-9.8889 7.4931-13.575 8.7944-15.705 5.5438-0.66446-1.0141-1.6173-1.5737-2.6862-1.5776-0.91104 0-7.2637 2.7275-14.117 6.0686-13.898 6.7751-17.374 7.7122-19.577 5.2773zm163.93-3.7458c-6.1545-2.6749-28.333-13.715-62.27-30.996-9.2965-4.734-10.213-5.3491-10.215-6.8581 0-2.4827 3.6896-7.5387 6.729-9.2108 2.2192-1.2208 3.0626-2.3008 5.2318-6.6998 1.4224-2.8845 3.8038-6.671 5.292-8.4145 2.0983-2.4581 2.9504-4.1675 3.7944-7.6116 2.6654-10.876 6.8917-12.699 38.634-16.665l17.88-2.2339 1.8131 1.7301c2.3439 2.2366 7.0603 9.7985 8.2961 13.301 1.4226 4.0321 1.2408 6.4938-0.608 8.2306-0.8643 0.8121-1.5716 2.0164-1.5716 2.6764 0 0.6601 1.4496 5.4905 3.2214 10.734 3.4168 10.113 4.606 17.125 2.9928 17.649-0.4789 0.1554-2.7577 0.4642-5.0639 0.6862-2.6099 0.2512-4.315 0.7211-4.5159 1.2444-0.1774 0.4625 0.086 2.3519 0.5852 4.1986 1.2108 4.4784 3.2468 17.208 3.7676 23.556 0.3837 4.6764 0.306 5.225-0.9125 6.4435-2.0902 2.0902-5.1767 1.6747-13.081-1.7607zm1.0064-103.89c-1.8406-1.8406-3.9222-4.7588-4.7832-6.7057-1.1687-2.6426-3.3855-5.2935-9.5008-11.361-9.104-9.0332-12.76-13.939-13.283-17.825-0.5547-4.1197 0.3232-12.62 2.4615-23.833 3.4163-17.915 5.3772-23.56 8.7996-25.329 2.7706-1.4327 11.829-3.4572 15.492-3.4622 3.7666-0.01 6.5282 1.7218 6.5282 4.0824 0 1.1462 1.2419 3.2235 2.088 3.4925 0.062 0.02 5.0627 0.2665 11.113 0.5487 12.347 0.5757 15.39 1.3572 16.086 4.1312 0.2486 0.9905 0 2.7014-0.608 4.2605-0.8194 2.0861-0.8664 2.7602-0.2359 3.3827 0.4331 0.4276 5.3657 1.3548 10.961 2.0606 14.825 1.8697 19.341 3.9332 18.213 8.3221-0.488 1.8986-4.5682 6.5515-20.851 23.777-16.839 17.814-37.038 37.718-38.277 37.718-0.5197 0-2.4113-1.4665-4.2037-3.2589zm-169.59-0.4848c-2.8391-0.9831-6.1136-2.4395-7.2766-3.2364-2.4132-1.6536-4.2759-4.4591-4.0297-6.0693 0.31004-2.0274-1.2935-3.7741-7.8537-8.555-7.4922-5.46-10.467-8.5447-10.467-10.854 0-2.9459-2.0579-6.0157-8.9063-13.286-3.7313-3.9608-7.6385-8.4913-8.6827-10.068-2.1499-3.2458-2.4654-6.3462-0.79848-7.8465 1.3971-1.2575 11.679-3.2413 39.761-7.671 27.847-4.3929 43.608-7.0989 46.725-8.0224 1.9687-0.5832 2.5104-0.5492 2.9764 0.1871 1.0214 1.6141 0.63153 2.5423-2.24 5.3331-1.5559 1.5122-2.828 3.255-2.8269 3.8729 1e-3 0.618 0.56681 4.0332 1.2573 7.5893 0.69045 3.5562 1.2554 7.6742 1.2554 9.1511s0.55673 5.7155 1.2372 9.4191c1.3764 7.4917 1.2338 8.4166-1.9002 12.316-3.3306 4.1445-28.663 27.016-32.076 28.961-0.67021 0.3818-2.6712-0.015-6.1551-1.2217zm86.674-72.074c-1.8996-0.5104-6.3205-2.4588-9.8243-4.3298-6.9157-3.6931-27.942-15.835-28.644-16.541-0.7385-0.7423 1.85-18.965 2.9276-20.609 0.7561-1.154 1.5522-1.5134 3.3518-1.5134 4.4119 0 4.9814-0.9138 8.8659-14.226 1.6709-5.7261 2.7469-6.9861 6.8961-8.0747 1.8581-0.48749 4.0143-1.4838 4.7916-2.2141 0.77732-0.73025 3.3589-4.9028 5.7369-9.2722 2.378-4.3695 5.3406-9.0217 6.5836-10.338 5.5408-5.8687 7.0793-3.8699 27.432 35.638 12.629 24.515 18.483 36.758 17.971 37.586-0.9718 1.5723-5.744 2.9338-10.33 2.9471-4.6778 0.014-4.8915 0.084-9.5521 3.1569-2.6219 1.7288-5.1364 3.146-5.5876 3.1493-1.6805 0.013-7.3459 3.0793-8.0218 4.3422-0.6071 1.1345-1.2645 1.3038-4.9218 1.268-2.3217-0.023-5.7754-0.459-7.675-0.9694z" fill="#17bcf0"/>
<path d="m910.52 1240.9c-1.2119-1.3392-1.2147-1.5271-0.1607-10.909 0.58986-5.2505 2.0754-15.77 3.3012-23.376 5.4507-33.824 6.7407-43.474 6.9588-52.055 0.1213-4.7735 0.39577-8.9626 0.6099-9.3091 0.45008-0.7282 3.5767-0.1741 5.9997 1.0633 0.90418 0.4617 2.1179 1.8383 2.6971 3.0589 1.3946 2.9388 2.3941 3.3824 8.6215 3.8257 7.283 0.5184 7.5778 0.6087 10.152 3.109 2.507 2.4348 3.1098 2.5292 10.203 1.5976 5.5012-0.7226 8.707 0.049 11.174 2.6901 1.9297 2.0657 5.9741 9.7527 10.86 20.641 1.609 3.5854 4.6058 9.8727 6.6598 13.972 4.3064 8.594 4.2995 9.2341-0.15883 14.874-3.0301 3.8333-6.1198 5.9446-10.64 7.2709-4.4551 1.3071-8.6665 3.7309-14.123 8.1282-8.8656 7.1446-13.667 8.8643-15.774 5.6495-0.66446-1.0141-1.6173-1.5737-2.6862-1.5776-0.91104 0-7.2637 2.7275-14.117 6.0686-13.898 6.7751-17.374 7.7122-19.577 5.2773zm163.93-3.7458c-6.1284-2.6636-21.813-10.465-62.316-30.996l-10.259-5.2004 0.3428-2.1903c0.4794-3.0635 3.4082-6.9743 6.5051-8.6864 2.1836-1.2071 3.0468-2.3171 5.2039-6.6916 1.4224-2.8845 3.8318-6.7038 5.3542-8.4873 1.5689-1.838 3.0622-4.3857 3.4472-5.881 2.0008-7.7716 3.7089-10.094 9.2352-12.555 4.7714-2.1254 10.244-3.1888 26.577-5.1643 7.4336-0.8991 15.171-1.9224 17.194-2.2739 3.2261-0.5605 3.8351-0.4989 4.9484 0.5003 1.9319 1.734 5.9947 7.9367 8.0652 12.313 2.3087 4.8802 2.3857 7.5229 0.2806 9.628-0.8643 0.8643-1.5716 2.1733-1.5716 2.9088s1.4406 5.5873 3.2014 10.782c4.7536 14.024 4.8276 17.989 0.3363 18.005-3.4013 0.012-6.5927 0.7427-6.9153 1.5833-0.1708 0.4452 0.098 2.3205 0.5972 4.1672 1.2108 4.4784 3.2468 17.208 3.7676 23.556 0.3837 4.6764 0.306 5.225-0.9125 6.4435-2.0902 2.0902-5.1767 1.6747-13.081-1.7607zm1.0201-103.88c-1.9184-1.9184-3.9526-4.8097-4.9756-7.0721-1.2408-2.7439-2.955-4.9818-6.0571-7.9077-6.4961-6.1271-12.701-13.138-14.748-16.664-1.5811-2.7231-1.8257-3.789-1.8308-7.9765-0.01-7.8548 5.4391-36.705 7.7912-41.253 2.2143-4.282 8.0076-6.7233 17.662-7.4428 5.2978-0.3948 7.273 0.7954 8.1294 4.8985 0.1905 0.9127 0.8438 1.8736 1.4518 2.1354 0.6081 0.2618 5.9146 0.6769 11.792 0.9224 12.023 0.5023 15.071 1.2916 15.772 4.0845 0.2486 0.9905 0 2.7014-0.608 4.2605-0.8194 2.0861-0.8664 2.7602-0.2359 3.3827 0.4331 0.4276 5.3657 1.3548 10.961 2.0606 14.825 1.8697 19.341 3.9332 18.213 8.3221-0.488 1.8986-4.5682 6.5515-20.851 23.777-16.839 17.814-37.038 37.718-38.277 37.718-0.5197 0-2.4051-1.4603-4.19-3.2452zm-170.87-1.0221c-6.0318-2.1752-9.5329-5.208-9.783-8.4745-0.22816-2.9793-1.0846-3.9096-8.321-9.0392-6.9457-4.9234-10.264-8.3689-10.264-10.658 0-2.9669-2.0451-6.0223-8.9063-13.306-3.7313-3.9608-7.6385-8.4913-8.6827-10.068-2.1499-3.2458-2.4654-6.3462-0.79848-7.8465 1.3971-1.2575 11.679-3.2413 39.761-7.671 27.847-4.3929 43.608-7.0989 46.725-8.0224 1.9687-0.5832 2.5104-0.5492 2.9764 0.1871 1.0214 1.6141 0.63153 2.5423-2.24 5.3331-1.5559 1.5122-2.8288 3.3049-2.8288 3.9839 0 0.6789 0.56576 4.1049 1.2573 7.6132 0.69149 3.5083 1.2573 7.7475 1.2573 9.4204s0.42428 5.2588 0.94284 7.9688c1.1742 6.1364 1.1874 8.6031 0.0578 10.788-0.92817 1.7949-12.475 13.215-20.502 20.278-9.9045 8.714-13.225 11.265-14.61 11.225-0.77328-0.022-3.4918-0.7928-6.0411-1.7121zm87.3-72.02c-3.0555-0.9157-9.0287-3.8629-16.973-8.3746-22.867-12.987-20.732-11.54-20.739-14.057-8e-3 -2.932 1.6696-16.325 2.2232-17.752 0.56349-1.4531 2.2708-2.3399 4.5047-2.3399 3.2691 0 4.4258-1.4885 6.4958-8.3586 3.86-12.811 3.7469-12.632 8.8151-13.969 1.7911-0.47249 3.8926-1.4566 4.6699-2.1868 0.77732-0.73025 3.3589-4.9028 5.7369-9.2722 2.378-4.3695 5.3406-9.0217 6.5836-10.338 5.5408-5.8687 7.0793-3.8699 27.432 35.638 12.629 24.515 18.483 36.758 17.971 37.586-0.9718 1.5723-5.744 2.9338-10.33 2.9471-4.6778 0.014-4.8915 0.084-9.5521 3.1569-2.6219 1.7288-5.1837 3.1432-5.6926 3.1432-1.9186 0-6.647 2.4971-7.6621 4.0464-0.9482 1.4471-1.4486 1.6078-4.9124 1.5776-2.1212-0.018-5.9783-0.6695-8.5714-1.4466z" fill="#18b4ed"/>
<path d="m910.52 1240.9c-1.2119-1.3392-1.2147-1.5271-0.1607-10.909 0.58986-5.2505 2.0754-15.77 3.3012-23.376 6.1298-38.037 7.2146-47.084 7.2101-60.124-4.9e-4 -1.4164 1.4233-1.8408 3.8452-1.1462 2.2338 0.6406 5.5839 3.5184 5.5839 4.7967 0 1.6426 2.9369 2.6582 9.3507 3.2335 6.1547 0.5521 6.6252 0.6956 8.3564 2.5479 2.3972 2.565 3.7542 2.8405 10.142 2.0591 6.4503-0.789 9.3419-0.1537 11.935 2.6221 1.9227 2.0582 5.9719 9.7566 10.853 20.633 1.609 3.5854 4.6058 9.8727 6.6598 13.972 4.3064 8.594 4.2995 9.2341-0.15883 14.874-3.0979 3.9191-6.0253 5.8715-11.248 7.5014-4.269 1.3324-8.8282 4.0693-15.716 9.4343-7.4022 5.7658-11.647 7.0522-13.573 4.1129-0.69227-1.0566-1.6062-1.5716-2.7886-1.5716-0.96739 0-7.2997 2.7289-14.072 6.0643-13.766 6.7797-17.296 7.7337-19.52 5.2756zm163.95-3.7358c-14.726-6.4004-71.82-35.627-72.363-37.043-0.199-0.5187 0.454-2.5015 1.4512-4.4061 1.3307-2.5415 2.6297-3.9707 4.8814-5.3704 2.6196-1.6284 3.4685-2.7045 5.8068-7.3603 1.5063-2.9992 3.875-6.7659 5.2637-8.3705 1.3943-1.6109 2.8315-4.1072 3.2093-5.5742 2.007-7.7934 3.71-10.111 9.2402-12.574 4.7714-2.1254 10.244-3.1888 26.577-5.1643 7.4336-0.8991 15.171-1.9224 17.194-2.2739 3.2261-0.5605 3.8351-0.4989 4.9484 0.5003 1.9319 1.734 5.9947 7.9367 8.0652 12.313 2.3087 4.8802 2.3857 7.5229 0.2806 9.628-2.0365 2.0364-1.982 3.4033 0.4026 10.108 2.7126 7.6266 4.9408 15.834 4.9408 18.199 0 2.6202-0.8305 3.1507-5.5732 3.5594-2.2009 0.1897-4.2697 0.6128-4.5972 0.9403-0.3748 0.3749-0.2322 1.9973 0.3851 4.3794 1.4055 5.4242 3.3191 17.175 3.8282 23.508 0.4024 5.0053 0.3326 5.5361-0.8892 6.7578-2.0821 2.0821-5.1787 1.6653-13.052-1.7567zm0.4826-104.75c-2.1141-2.26-3.8439-4.4338-3.8439-4.8306 0-2.0939-2.9676-6.3007-6.7522-9.5719-5.5288-4.7788-12.371-12.417-14.67-16.378-1.5811-2.7231-1.8257-3.789-1.8308-7.9765-0.01-7.8548 5.4391-36.705 7.7912-41.253 2.2143-4.282 8.0076-6.7233 17.662-7.4428 5.2978-0.3948 7.273 0.7954 8.1294 4.8985 0.1905 0.9127 0.8438 1.8727 1.4518 2.1335 0.6081 0.2607 5.7732 0.6804 11.478 0.9325 15.083 0.6667 18.066 2.2533 15.39 8.186-1.3891 3.0804-0.6759 4.1699 3.0485 4.6571 1.4411 0.1884 6.0814 0.7705 10.312 1.2933 12.254 1.5147 16.721 3.7981 15.665 8.0071-0.9628 3.8361-56.412 61.454-59.141 61.454-0.4654 0-2.576-1.8491-4.6901-4.1091zm-170.35-0.1582c-6.0318-2.1752-9.5329-5.208-9.783-8.4745-0.22998-3.003-1.1907-4.0435-8.5774-9.2893-7.2704-5.1631-10.008-8.0926-10.008-10.711 0-2.9793-1.4092-5.0438-8.7925-12.881-3.7938-4.0273-7.7522-8.6121-8.7965-10.189-2.1499-3.2458-2.4654-6.3462-0.79848-7.8465 1.3971-1.2575 11.679-3.2413 39.761-7.671 28.47-4.4911 43.771-7.1154 46.386-7.9559 1.5345-0.4932 2.3042-0.4679 2.986 0.098 1.5045 1.2487 1.0741 2.4554-1.9102 5.3558-1.5559 1.5122-2.8326 3.1135-2.8371 3.5586-4e-3 0.4451 0.54634 4.4867 1.2242 8.9814 1.0883 7.2165 1.7297 11.819 2.995 21.493 0.52233 3.9936-0.17633 5.668-4.0859 9.7922-9.9209 10.466-29.628 27.512-31.735 27.451-0.76618-0.022-3.4789-0.7928-6.0282-1.7121zm87.3-72.02c-3.0555-0.9157-9.0287-3.8629-16.973-8.3746-22.867-12.987-20.732-11.54-20.739-14.057-8e-3 -2.932 1.6696-16.325 2.2232-17.752 0.56349-1.4531 2.2708-2.3399 4.5047-2.3399 3.8267 0 4.5928-1.2566 8.3332-13.67 2.1138-7.0148 2.8178-7.8538 7.2437-8.6332 3.5061-0.61739 6.1513-3.6575 10.692-12.289 4.0589-7.7148 7.469-11.927 9.6557-11.927 2.213 0 5.4814 3.6614 9.2592 10.372 4.89 8.6869 24.757 47.325 29.253 56.891l3.6928 7.8579-1.316 1.0919c-1.8499 1.5348-5.7325 2.4604-9.5629 2.2798-4.0797-0.1923-5.6385 0.3139-9.3997 3.0526-1.6459 1.1985-4.8991 2.8599-7.2292 3.692-2.6855 0.959-4.8288 2.2034-5.854 3.399-1.4678 1.7117-1.9619 1.8831-5.3434 1.8525-2.0492-0.018-5.8476-0.6695-8.4407-1.4466z" fill="#17aae6"/>
<path d="m910.47 1240.6c-1.0498-1.6021-1.0519-2.1384-0.0434-10.753 0.58376-4.9865 2.4708-17.913 4.1934-28.725 4.6181-28.986 6.251-41.842 6.251-49.216v-6.5888h2.4297c2.7658 0 5.2653 1.6543 6.7045 4.4373 1.3352 2.582 2.5608 3.0402 9.7589 3.6489 6.0482 0.5114 6.5018 0.6495 8.2392 2.5086 2.4016 2.5698 3.7564 2.8453 10.147 2.0636 6.4503-0.789 9.3419-0.1537 11.935 2.6221 1.9227 2.0582 5.9719 9.7566 10.853 20.633 1.609 3.5854 4.6058 9.8727 6.6598 13.972 4.3064 8.594 4.2995 9.2341-0.15883 14.874-3.0979 3.9191-6.0253 5.8715-11.248 7.5014-4.269 1.3324-8.8282 4.0693-15.716 9.4343-7.4022 5.7658-11.647 7.0522-13.573 4.1129-0.68804-1.0501-1.6074-1.5716-2.7705-1.5716-0.95741 0-7.2439 2.6953-13.97 5.9895-14.249 6.9788-17.829 7.898-19.691 5.0562zm165.67-2.6934c-5.3538-2.25-63.767-31.512-70.564-35.349-1.988-1.1222-3.6146-2.4491-3.6146-2.9484 0-0.9796 1.985-4.9479 3.2862-6.5697 0.4399-0.5484 2.0006-1.7532 3.4682-2.6774 2.159-1.3597 3.2029-2.745 5.4698-7.2586 1.5408-3.068 3.9378-6.8911 5.3265-8.4957 1.3943-1.6109 2.8315-4.1072 3.2093-5.5742 2.007-7.7934 3.71-10.111 9.2402-12.574 4.7714-2.1254 10.244-3.1888 26.577-5.1643 7.4336-0.8991 15.171-1.9224 17.194-2.2739 3.2261-0.5605 3.8351-0.4989 4.9484 0.5003 1.9319 1.734 5.9947 7.9367 8.0652 12.313 2.3087 4.8802 2.3857 7.5229 0.2806 9.628-2.0365 2.0364-1.982 3.4033 0.4026 10.108 2.7126 7.6266 4.9408 15.834 4.9408 18.199 0 2.6202-0.8305 3.1507-5.5732 3.5594-2.2009 0.1897-4.2697 0.6128-4.5972 0.9403-0.3748 0.3749-0.24 1.9672 0.3641 4.2983 1.2014 4.6365 3.3128 17.864 3.8657 24.219 0.3791 4.3582 0.2949 4.9274-0.9068 6.1291-1.9126 1.9126-5.1028 1.6297-11.383-1.0096zm-0.4401-104.69c-1.8468-1.8893-4.0471-5.0568-5.1465-7.4086-1.4824-3.1712-2.8918-4.9479-6.1792-7.7893-5.5427-4.7908-12.384-12.427-14.686-16.391-1.5811-2.7231-1.8257-3.789-1.8308-7.9765-0.01-7.8548 5.4391-36.705 7.7912-41.253 2.2143-4.282 8.0076-6.7233 17.662-7.4428 5.2978-0.3948 7.273 0.7954 8.1294 4.8985 0.1905 0.9127 0.8438 1.8727 1.4518 2.1335 0.6081 0.2607 5.7732 0.6804 11.478 0.9325 15.114 0.6681 18.068 2.2489 15.372 8.2275-1.6911 3.7503-0.9899 4.1253 10.428 5.5763 11.062 1.4058 15.196 2.4756 17.337 4.4865 2.2014 2.0681 1.8541 3.8366-1.5537 7.9117-11.833 14.151-54.432 57.395-56.538 57.395-0.2689 0-1.9406-1.4852-3.7149-3.3003zm-171.1-0.967c-6.0318-2.1752-9.5329-5.208-9.783-8.4745-0.22998-3.003-1.1907-4.0435-8.5774-9.2893-7.4873-5.3172-10.008-8.0685-10.008-10.925 0-2.6933-2.1769-5.7353-10.731-14.995-8.5315-9.2355-10.45-13.185-7.6384-15.729 1.3062-1.1821 12.097-3.2053 44.143-8.2762 25.491-4.0337 39.016-6.361 42.089-7.2426 4.509-1.2932 4.7959 1.9018 0.50885 5.6661-2.8559 2.5077-2.7989 1.6676-0.93736 13.813 0.89492 5.8389 1.6111 10.966 2.7824 19.922 0.52233 3.9936-0.17633 5.668-4.0859 9.7922-9.9209 10.466-29.628 27.512-31.735 27.451-0.76618-0.022-3.4789-0.7928-6.0282-1.7121zm87.3-72.02c-3.0555-0.9157-9.0287-3.8629-16.973-8.3746-22.867-12.987-20.732-11.54-20.739-14.057-8e-3 -2.932 1.6696-16.325 2.2232-17.752 0.56349-1.4531 2.2708-2.3399 4.5047-2.3399 3.8267 0 4.5928-1.2566 8.3332-13.67 2.1138-7.0148 2.8178-7.8538 7.2437-8.6332 3.4781-0.61245 6.1166-3.6285 10.692-12.222 4.1407-7.7765 7.5361-11.994 9.6564-11.994 2.6158 0 5.6948 3.9519 11.754 15.087 8.3245 15.297 29.822 58.262 29.822 59.603 0 2.0501-3.6496 3.5401-8.8008 3.5931-5.6914 0.059-6.9836 0.4472-10.851 3.2629-1.6459 1.1985-4.8991 2.8599-7.2292 3.692-2.6855 0.959-4.8288 2.2034-5.854 3.399-1.4678 1.7117-1.9619 1.8831-5.3434 1.8525-2.0492-0.018-5.8476-0.6695-8.4407-1.4466z" fill="#00b7f0"/>
<path d="m910.47 1240.6c-1.0498-1.6021-1.0519-2.1384-0.0434-10.753 0.58376-4.9865 2.4708-17.913 4.1934-28.725 4.6181-28.986 6.251-41.842 6.251-49.216v-6.5888h2.4297c2.7658 0 5.2653 1.6543 6.7045 4.4373 1.3364 2.5842 2.56 3.0402 9.8029 3.6526 5.7574 0.4868 6.5898 0.7138 7.8068 2.1286 1.7452 2.029 3.548 2.9828 5.6376 2.9828 2.8799 0 5.0273 2.9248 7.1625 9.7558 1.5081 4.8247 10.601 42.948 11.503 48.227 0.38049 2.2275-16.828 15.296-21.042 15.98-1.8983 0.308-2.512 0.1009-3.7916-1.2798-0.86881-0.9375-2.2092-1.6473-3.1105-1.6473-0.8711 0-7.0869 2.6953-13.813 5.9895-14.249 6.9788-17.829 7.898-19.691 5.0562zm165.67-2.6934c-5.3538-2.25-63.767-31.512-70.564-35.349-1.988-1.1222-3.6146-2.4491-3.6146-2.9484 0-0.9796 1.985-4.9479 3.2862-6.5697 0.4399-0.5484 2.0006-1.7532 3.4682-2.6774 2.1662-1.3642 3.2034-2.746 5.5126-7.344 3.6552-7.2779 6.3321-10.231 10.884-12.007 3.1091-1.2129 4.6928-1.3837 12.367-1.3343 11.696 0.075 46.955 3.153 48.736 4.254 0.6478 0.4003 5.3258 13.422 6.8793 19.15 1.4607 5.3852 1.619 8.3875 0.4896 9.2816-0.4322 0.3421-2.5865 0.7772-4.7874 0.9669s-4.2697 0.6128-4.5972 0.9403c-0.3748 0.3749-0.24 1.9672 0.3641 4.2983 1.2014 4.6365 3.3128 17.864 3.8657 24.219 0.3791 4.3582 0.2949 4.9274-0.9068 6.1291-1.9126 1.9126-5.1028 1.6297-11.383-1.0096zm-0.4639-104.69c-1.8759-1.9052-3.9281-4.84-4.8546-6.9424-1.0193-2.3133-2.935-4.9558-5.2505-7.2427-8.2304-8.1288-7.1911-13.83 9.6083-52.704l5.4751-12.67 7.8982-0.4556c13.325-0.7685 21.107 0.6162 21.931 3.9025 0.2289 0.9118-0.074 2.5608-0.742 4.0426-1.6911 3.7503-0.9899 4.1253 10.428 5.5763 11.062 1.4058 15.196 2.4756 17.337 4.4865 2.2014 2.0681 1.8541 3.8366-1.5537 7.9117-11.833 14.151-54.432 57.395-56.538 57.395-0.2689 0-1.9513-1.4852-3.7387-3.3003zm-188.83-18.319c-8.0275-5.6588-10.613-8.421-10.613-11.337 0-2.6933-2.1769-5.7353-10.731-14.995-8.5315-9.2355-10.45-13.185-7.6384-15.729 1.3062-1.1821 12.097-3.2053 44.143-8.2762 25.491-4.0337 39.016-6.361 42.089-7.2426 4.509-1.2932 4.7959 1.9018 0.50885 5.6661-2.877 2.5263-2.8445 1.9584-0.79935 13.958 1.1161 6.5488 1.1158 6.8209-0.0106 9.3187-2.0802 4.6131-9.3799 10.17-28.587 21.76-12.81 7.73-19.677 11.523-20.864 11.523-0.49884 0-3.873-2.0908-7.4981-4.6462zm122.03-60.075c-4.2915-2.289-43.097-34.403-43.807-36.253-0.18765-0.4891 0.23853-2.5102 0.94707-4.4914 0.70855-1.9813 2.1632-6.5004 3.2325-10.043 2.1174-7.0142 2.8225-7.854 7.2472-8.6332 3.4781-0.61245 6.1166-3.6285 10.692-12.222 4.1407-7.7765 7.5361-11.994 9.6564-11.994 2.6158 0 5.6948 3.9519 11.754 15.087 8.3245 15.297 29.822 58.262 29.822 59.603 0 2.0501-3.6496 3.5401-8.8008 3.5931-5.7782 0.06-6.7105 0.3627-11.773 3.8289-4.4393 3.0392-5.7225 3.2573-8.9715 1.5244z" fill="#01b2ee"/>
<path d="m910.47 1240.6c-1.0498-1.6021-1.0519-2.1384-0.0434-10.753 0.58376-4.9865 2.4708-17.913 4.1934-28.725 4.6181-28.986 6.251-41.842 6.251-49.216v-6.5888h2.4297c2.7658 0 5.2653 1.6543 6.7045 4.4373 1.3263 2.5648 2.459 2.9915 9.7672 3.6791 6.2607 0.5891 6.5477 0.6832 8.465 2.776 1.1659 1.2727 2.8674 2.3446 4.125 2.5988 3.9479 0.7978 4.3568 1.0491 5.5663 3.4199 2.1323 4.1797 3.9945 11.37 11.412 44.066l2.4958 11.001-3.3237 2.9979c-4.9808 4.4926-13.115 10.594-15.405 11.555-2.8412 1.1922-3.4731 1.0898-6.0858-0.9866-2.8879-2.295-2.4434-2.4208-17.417 4.9312-13.684 6.7193-17.29 7.6249-19.136 4.8068zm165.67-2.6934c-5.3538-2.25-63.767-31.512-70.564-35.349-1.988-1.1222-3.6146-2.4491-3.6146-2.9484 0-1.4143 2.2766-5.531 3.8879-7.0305 0.8005-0.745 2.4456-2.0008 3.6557-2.7908 1.6074-1.0493 2.9213-2.9103 4.8764-6.9068 6.0324-12.331 11.053-14.125 34.885-12.467 15.881 1.1049 34.983 3.1142 36.299 3.8184 1.8196 0.9739 7.8918 17.953 8.6331 24.141 0.4598 3.8381-0.5579 4.7784-5.1717 4.7784-1.7694 0-3.7438 0.3851-4.3875 0.8558-1.119 0.8182-1.1251 1.0183-0.1378 4.5576 1.2202 4.3739 3.3367 17.426 3.9281 24.222 0.3791 4.3582 0.2949 4.9274-0.9068 6.1291-1.9126 1.9126-5.1028 1.6297-11.383-1.0096zm-0.4639-104.69c-1.8861-1.9155-3.9282-4.8401-4.8667-6.9699-0.8894-2.0183-2.9875-5.13-4.6625-6.915-4.0869-4.3553-5.0941-6.5209-5.0941-10.954 0-6.8519 3.0234-15.572 15.199-43.84l4.6031-10.687 11.63-0.19c12.274-0.2005 15.33 0.2274 17.318 2.4245 1.1312 1.2499 1.1353 1.4248 0.1024 4.3331-0.592 1.6668-1.0764 3.3349-1.0764 3.7068 0 0.9724 3.7524 1.8463 11.315 2.6353 13.035 1.36 18.859 3.5925 18.859 7.2297 0 2.4327-6.6537 9.9111-32.909 36.988-15.189 15.664-25.504 25.538-26.679 25.538-0.2689 0-1.9513-1.4852-3.7387-3.3003zm-187.6-17.58c-3.213-2.1491-7.1919-5.2089-8.842-6.7994-2.4813-2.3916-3.0003-3.2803-3.0003-5.1367 0-2.8838-2.1588-5.9357-10.731-15.17-8.5242-9.1827-10.454-13.147-7.6384-15.694 1.3062-1.1821 12.097-3.2053 44.143-8.2762 25.566-4.0456 39.016-6.3612 42.12-7.2514 4.4076-1.2641 4.7636 2.2583 0.56888 5.6292-2.8911 2.3234-2.9224 2.6246-1.2606 12.14 1.1642 6.6657 1.0712 9.3443-0.42115 12.133-1.152 2.1527-6.4788 6.7647-12.405 10.74-9.8732 6.6237-35.049 21.593-36.316 21.593-0.20716 0-3.0054-1.7583-6.2184-3.9074zm120.87-61.175c-3.2857-1.8783-10.715-7.7129-23.977-18.831-17.817-14.936-20.116-16.977-19.864-17.635 0.13758-0.3592 1.3014-4.3195 2.5863-8.8009 3.3371-11.639 4.1607-12.867 9.2206-13.753 3.198-0.55978 5.8765-3.7425 10.276-12.21 3.9707-7.6422 7.4989-12.045 9.6526-12.045 2.6158 0 5.6948 3.9519 11.754 15.087 8.3245 15.297 29.822 58.262 29.822 59.603 0 2.1484-3.6344 3.5316-9.4295 3.5886-5.7202 0.056-6.5268 0.3477-12.17 4.3956-1.6801 1.2052-3.5188 2.1879-4.0861 2.1837-0.5674 0-2.2715-0.7164-3.787-1.5827z" fill="#00acec"/>
<path d="m910.47 1240.6c-1.0498-1.6021-1.0519-2.1384-0.0434-10.753 0.58376-4.9865 2.4708-17.913 4.1934-28.725 4.6181-28.986 6.251-41.842 6.251-49.216v-6.5888h2.5774c2.1128 0 2.9344 0.3806 4.5576 2.1113 1.0891 1.1612 2.406 2.7406 2.9266 3.5099 0.63793 0.9428 1.9697 1.585 4.0861 1.9705 5.0717 0.9237 6.6033 3.4716 7.8648 13.084 0.77713 5.9211 1.7402 28.884 1.9935 47.531l0.1964 14.458-13.526 6.7701c-15.615 7.8157-19.146 8.795-21.077 5.8472zm166.62-2.3542c-4.709-1.8236-63.586-31.205-71.507-35.684-1.988-1.1242-3.6146-2.4527-3.6146-2.952 0-1.2613 2.1463-5.299 3.6774-6.9183 0.6999-0.7401 2.9038-2.279 4.8976-3.4197 3.0819-1.7633 4.3881-2.1142 8.7158-2.3413 4.302-0.2258 6.533 0.086 14.4 2.0112 16.576 4.0569 38.952 10.83 45.836 13.875 2.4017 1.0622 3.5735 2.0033 4.0729 3.271 1.7595 4.467 3.9829 16.671 4.8643 26.7 0.3832 4.3611 0.2999 4.9266-0.9026 6.1291-1.8238 1.8238-4.4316 1.6563-10.44-0.6704zm-1.3638-105.03c-1.7638-1.8152-3.5221-3.9182-3.9075-4.6734-1.7843-3.4968-0.112-8.8074 5.9021-18.743 3.1853-5.2624 27.768-42.964 28.647-43.935 0.6185-0.6831 18.65 1.1669 24.644 2.5284 4.8318 1.0975 7.9991 3.3139 7.9991 5.5974 0 2.4327-6.6537 9.9111-32.909 36.988-15.189 15.664-25.504 25.538-26.679 25.538-0.2689 0-1.932-1.4852-3.6957-3.3003zm-207.05-41.355c-4.1204-4.161-8.3772-8.8527-9.4596-10.426-2.4882-3.6165-3.0538-7.0524-1.4062-8.5435 1.3778-1.2469 11.575-3.1691 44.205-8.3324 25.566-4.0456 39.016-6.3612 42.12-7.2514 4.4478-1.2756 4.7567 2.2638 0.49632 5.6876l-2.5291 2.0324 0.41183 4.1794c0.62384 6.3311 1.1463 6.0036-25.412 15.929-17.872 6.679-39.341 14.291-40.306 14.291-0.34608 0-4.0005-3.4045-8.1209-7.5656zm157.9-42.525c-4.009-0.5499-10.91-8.304-34.305-38.546-9.8705-12.759-10.436-13.639-10.101-15.716 0.55462-3.4437 8.1646-18.305 10.879-21.245 1.4234-1.5418 3.0075-2.6426 3.8027-2.6426 2.6158 0 5.6948 3.9519 11.754 15.087 8.5208 15.658 29.822 58.276 29.822 59.666 0 2.26-6.5189 4.128-11.852 3.3964z" fill="#01a2e4"/>
<path d="m910.42 1240.6c-0.98331-1.5008-0.96449-2.2658 0.30533-12.416 0.74427-5.9489 2.7512-19.586 4.4598-30.304 4.2592-26.718 5.6833-38.228 5.6833-45.934v-6.5571h2.043c2.6729 0 5.8124 1.962 7.0833 4.4198 1.0245 1.9811 4.1374 3.7501 6.5992 3.7501 0.71911 0 1.9879 0.7341 2.8195 1.6315 3.2058 3.4591 4.4195 15.318 5.0441 49.288 0.20662 11.237 0.49973 21.045 0.65138 21.796 0.24357 1.2068-1.0045 2.0336-10.707 7.0934-17.149 8.9434-21.917 10.38-23.982 7.2287zm169.18-1.4695c-5.5212-1.9981-12.211-5.0909-27.031-12.497-18.162-9.0758-49.476-25.263-50.23-25.965-0.9807-0.9132 1.457-6.0499 3.9324-8.2863 6.1441-5.5508 12.507-6.5818 24.295-3.937 16.871 3.7851 47.849 13.418 51.218 15.927 1.0793 0.8037 1.9423 2.4682 2.6979 5.2031 1.6114 5.8329 3.5645 18.333 3.7542 24.028 0.1418 4.2555-6e-4 5.0401-1.0564 5.8148-1.6083 1.1804-3.7492 1.0992-7.5805-0.2873zm-3.1208-105.1c-4.3737-4.0316-5.6026-6.3877-5.1299-9.8359 0.5408-3.9458 4.9329-12.027 14.615-26.893 4.504-6.9149 10.997-16.883 14.428-22.151l6.2387-9.5788 2.8288 0.3049c1.5559 0.1677 6.8429 0.7383 11.749 1.268 10.119 1.0926 14.146 2.1152 16.3 4.1397 3.0199 2.8371 2.4506 3.7454-12.519 19.973-11.634 12.612-40.855 42.068-43.644 43.995l-2.0248 1.399zm-208.48-43.166c-10.812-10.905-13.421-15.687-9.8386-18.033 1.7474-1.1446 14.926-3.5788 46.362-8.5636 13.311-2.1108 27.88-4.5204 32.374-5.3546s8.6672-1.5194 9.2723-1.5227c1.5805-0.01 1.4243 2.8512-0.23574 4.3159-0.73471 0.6483-1.9036 1.6758-2.5977 2.2833-1.0967 0.9601-1.214 1.6164-0.89676 5.014 0.44236 4.7373-0.2001 5.8806-4.4229 7.8714-5.227 2.4643-38.548 14.871-54.225 20.19l-7.2161 2.4484zm159.06-41.609c-4.9901-0.9721-9.6243-6.1213-35.115-39.018-9.4048-12.137-9.4965-12.286-9.2765-15.106 0.40003-5.1266 9.1184-21.497 12.378-23.241 1.6942-0.90674 3.9586-0.21834 5.854 1.7798 0.8755 0.92283 3.775 5.6383 6.4434 10.479 7.6441 13.866 31.078 60.454 31.078 61.785 0 2.2156-6.813 4.2074-11.361 3.3215z" fill="#009de0"/>
<path d="m910.88 1241c-0.73164-0.7316-1.3302-1.7-1.3302-2.152 0-2.3478 2.7956-22.807 5.0416-36.896 5.3368-33.478 6.3583-41.575 6.3242-50.133l-0.0257-6.4435h1.9047c2.8175 0 5.2964 1.5366 7.306 4.5288 1.7322 2.5791 2.3715 2.9259 7.2547 3.9353 4.8781 1.0083 6.5966 14.514 6.922 54.399l0.16155 19.802-8.1722 4.29c-17.768 9.3269-22.957 11.099-25.387 8.6699zm167.77-2.3376c-2.5931-0.8821-10.372-4.3573-17.287-7.7226-13.226-6.4368-58.12-29.436-58.942-30.195-0.6834-0.6317 0.6971-4.4001 2.5026-6.8313 3.3912-4.5665 10.869-7.4645 17.631-6.8331 4.6499 0.4342 24.044 5.3534 37.608 9.5387 14.607 4.5074 21.6 7.2142 22.607 8.7506 1.981 3.0235 5.2095 20.18 5.3804 28.592 0.1401 6.8909-1.1643 7.5366-9.4981 4.7016zm-2.4484-104.92c-8.5377-7.986-7.963-9.5287 18.537-49.768l12.075-18.336 2.4197 0.262c1.3309 0.1442 6.424 0.6941 11.318 1.222 13.281 1.4326 18.447 3.3687 18.447 6.9132 0 1.6295-4.5182 7.0113-17.62 20.988-12.386 13.214-37.402 38.314-40.046 40.182l-2.0324 1.4357zm-207.34-41.962c-10.981-10.818-14.268-16.644-10.702-18.964 1.7546-1.1417 11.854-3.0012 44.501-8.1937 14.017-2.2293 28.727-4.6535 32.689-5.387 12.424-2.3 11.919-2.2818 11.919-0.4293 0 1.0946-0.75317 2.2287-2.3574 3.5496-2.3082 1.9005-2.3639 2.0488-2.6717 7.1088l-0.31432 5.1679-2.6594 1.4638c-5.0285 2.7677-59.422 22.756-61.925 22.756-0.81194 0-3.9953-2.6554-8.4784-7.0721zm153.83-44.947c-4.7703-4.0786-9.6719-9.7737-22.048-25.617-14.855-19.016-18.168-23.617-18.168-25.224 0-4.2055 8.6718-21.147 12.156-23.748 1.588-1.1856 1.7638-1.1942 3.8708-0.18945 1.3628 0.64987 3.0152 2.3188 4.3192 4.3622 5.9497 9.3232 35.788 67.859 35.469 69.58-0.3248 1.7484-4.2618 3.1912-8.7113 3.1922-3.864 8e-4 -4.3078-0.151-6.8873-2.3562z" fill="#09d"/>
<path d="m911.15 1241.3c-1.0361-0.7718-1.2098-1.564-1.078-4.9159 0.18897-4.8062 1.8401-16.862 5.1643-37.706 4.3778-27.45 6.2524-43.047 6.0354-50.212-0.0749-2.4722 0.0897-2.8538 1.3052-3.0267 2.299-0.3269 5.7343 1.7275 7.175 4.2908 1.4566 2.5917 3.3826 3.7649 6.1806 3.7649 3.8432 0 5.7198 4.3182 6.9443 15.979 0.72236 6.8791 2.1918 56.488 1.7103 57.742-0.49631 1.2933-26.728 14.241-29.687 14.653-1.6953 0.2362-2.917 0.051-3.7496-0.5696zm170.02-1.958c-5.3583-1.4998-12.945-4.988-33.632-15.463-19.61-9.9295-44.999-23.084-45.483-23.565-0.6545-0.6503 3.1942-7.2613 5.0523-8.6785 6.8641-5.2356 13.336-5.7237 27.544-2.0775 19.493 5.0025 40.707 11.593 46.023 14.298 1.9378 0.986 2.5021 1.7464 3.33 4.4871 1.6392 5.4264 4.0807 20.98 4.0807 25.996 0 4.4456-0.081 4.7111-1.6125 5.2934-1.8812 0.7153-1.6645 0.7272-5.3025-0.2911zm-4.8606-105.65c-3.3775-2.8911-5.3492-6.9244-4.7879-9.7944 1.034-5.287 5.0927-12.236 23.193-39.709l11.907-18.073 2.5184 0.01c3.464 0.01 18.23 1.69 22.07 2.5136 4.1058 0.8805 7.0325 2.7056 7.5323 4.6972 0.4777 1.9031-0.7309 3.4828-12.265 16.031-11.929 12.977-45.562 46.53-46.641 46.53-0.5252 0-2.1126-0.9908-3.5274-2.2018zm-208.54-43.217c-8.6529-8.7196-11.506-12.926-10.767-15.871 0.21217-0.8453 0.87747-1.7955 1.4784-2.1115 1.4469-0.7606 17.736-3.625 46.983-8.2618 13.138-2.083 27.593-4.4911 32.12-5.3515 4.5278-0.8603 8.5589-1.5643 8.958-1.5643 0.39912 0 0.72567 0.6835 0.72567 1.5188 0 1.0209-0.82433 2.1716-2.5145 3.5103l-2.5145 1.9915v4.617c0 5.3394-0.45224 6.0332-5.3287 8.1749-8.5579 3.7585-58.003 21.677-59.817 21.677-0.58193 0-4.7776-3.7482-9.3237-8.3294zm156.51-42.505c-4.0143-2.486-10.752-10.387-29.289-34.345-13.344-17.247-12.724-16.279-12.218-19.046 1.0356-5.66 9.762-21.355 12.59-22.643 1.801-0.82057 4.8047 0.49344 6.4066 2.8026 3.049 4.3952 28.228 52.586 33.861 64.808 2.4359 5.2852 2.8254 6.6012 2.1827 7.3756-1.9337 2.33-10.404 2.9864-13.533 1.0488z" fill="#0093d8"/>
</g>
</g>
</g>
</g>
</g>
</svg>
